<?xml version="1.0" encoding="utf-8"?>
<!-- Generator: Adobe Illustrator 16.0.0, SVG Export Plug-In . SVG Version: 6.00 Build 0)  -->
<!DOCTYPE svg PUBLIC "-//W3C//DTD SVG 1.1//EN" "http://www.w3.org/Graphics/SVG/1.1/DTD/svg11.dtd">
<svg version="1.1" id="Layer_1" xmlns="http://www.w3.org/2000/svg" xmlns:xlink="http://www.w3.org/1999/xlink" x="0px" y="0px"
	 width="107.621px" height="81px" viewBox="0 0 107.621 81" enable-background="new 0 0 107.621 81" xml:space="preserve">
<g>
	<g>
		<path fill="none" stroke="#DC3645" stroke-miterlimit="10" d="M66.979,1.579l-3.613-0.991c-0.465-0.155-0.923-0.106-1.368,0.146
			c-0.447,0.252-0.75,0.632-0.904,1.136L39.359,77.09c-0.154,0.505-0.105,0.981,0.146,1.427c0.253,0.447,0.631,0.748,1.137,0.904
			l3.612,0.99c0.466,0.156,0.923,0.107,1.369-0.146c0.447-0.254,0.748-0.632,0.903-1.135L68.26,3.911
			c0.155-0.505,0.107-0.981-0.146-1.428C67.862,2.035,67.484,1.734,66.979,1.579z"/>
		<path fill="none" stroke="#DC3645" stroke-miterlimit="10" d="M34.41,16.263c0-0.505-0.195-0.952-0.583-1.34l-2.914-2.913
			c-0.389-0.388-0.835-0.583-1.34-0.583s-0.952,0.195-1.341,0.583L1.082,39.16C0.693,39.548,0.5,39.995,0.5,40.5
			s0.193,0.951,0.582,1.34l27.15,27.15c0.389,0.39,0.835,0.583,1.341,0.583c0.505,0,0.951-0.194,1.34-0.583l2.914-2.911
			c0.388-0.389,0.583-0.836,0.583-1.341s-0.195-0.951-0.583-1.34L10.929,40.5l22.898-22.897
			C34.216,17.215,34.41,16.768,34.41,16.263z"/>
		<path fill="none" stroke="#DC3645" stroke-miterlimit="10" d="M106.538,39.159l-27.151-27.15
			c-0.388-0.389-0.834-0.583-1.339-0.583s-0.951,0.194-1.341,0.583l-2.911,2.913c-0.39,0.389-0.583,0.835-0.583,1.34
			s0.193,0.952,0.583,1.34L96.693,40.5L73.796,63.398c-0.39,0.389-0.583,0.835-0.583,1.34s0.193,0.952,0.583,1.341l2.911,2.911
			c0.39,0.39,0.836,0.583,1.341,0.583s0.951-0.194,1.339-0.583l27.151-27.15c0.39-0.388,0.583-0.835,0.583-1.341
			C107.121,39.994,106.928,39.547,106.538,39.159z"/>
	</g>
</g>
</svg>
