<?xml version="1.0" encoding="utf-8"?>
<!-- Generator: Adobe Illustrator 16.0.0, SVG Export Plug-In . SVG Version: 6.00 Build 0)  -->
<!DOCTYPE svg PUBLIC "-//W3C//DTD SVG 1.1//EN" "http://www.w3.org/Graphics/SVG/1.1/DTD/svg11.dtd">
<svg version="1.1" id="Layer_1" xmlns="http://www.w3.org/2000/svg" xmlns:xlink="http://www.w3.org/1999/xlink" x="0px" y="0px"
	 width="106.115px" height="78.335px" viewBox="1.832 1.332 106.115 78.335" enable-background="new 1.832 1.332 106.115 78.335"
	 xml:space="preserve">
<path fill="none" stroke="#DC3746" d="M101.564,1.889H8.209c-3.223,0-5.819,2.606-5.819,5.82v65.574c0,3.22,2.596,5.826,5.819,5.826
	h93.354c3.216,0,5.826-2.606,5.826-5.826V7.709C107.389,4.496,104.78,1.889,101.564,1.889z M94.819,11.169L54.898,43.488
	L14.819,11.169H94.819z M9.884,69.982V17.929l40.955,33.042c1.18,0.966,2.613,1.438,4.044,1.438s2.868-0.473,4.059-1.438
	L99.884,17.8v52.182H9.884z"/>
</svg>
