<?xml version="1.0" encoding="utf-8"?>
<!-- Generator: Adobe Illustrator 16.0.0, SVG Export Plug-In . SVG Version: 6.00 Build 0)  -->
<!DOCTYPE svg PUBLIC "-//W3C//DTD SVG 1.1//EN" "http://www.w3.org/Graphics/SVG/1.1/DTD/svg11.dtd">
<svg version="1.1" id="Layer_1" xmlns="http://www.w3.org/2000/svg" xmlns:xlink="http://www.w3.org/1999/xlink" x="0px" y="0px"
	 width="77.596px" height="81.297px" viewBox="-7.9 0.032 77.596 81.297" enable-background="new -7.9 0.032 77.596 81.297"
	 xml:space="preserve">
<g>
	<path fill="none" stroke="#DC3645" stroke-miterlimit="10" d="M46.197,38.751L24.32,12.491c-0.884-1.059-1.608-0.794-1.608,0.587
		v17.567H-2.381c-2.759,0-5.019,2.253-5.019,5.018v10.036c0,2.757,2.259,5.018,5.019,5.018h25.093v17.566
		c0,1.382,0.725,1.638,1.608,0.577l21.877-26.258C47.08,41.544,47.08,39.809,46.197,38.751z"/>
	<path fill="none" stroke="#DC3645" stroke-miterlimit="10" d="M54.142,80.83H34.065c-2.773,0-5.017-2.244-5.017-5.019
		c0-2.773,2.243-5.02,5.017-5.02h20.076c2.768,0,5.018-2.253,5.018-5.017V15.588c0-2.774-2.25-5.02-5.018-5.02H34.06
		c-2.772,0-5.017-2.245-5.017-5.019s2.244-5.018,5.017-5.018h20.082c8.301,0,15.055,6.753,15.055,15.056v50.187
		C69.196,74.076,62.442,80.83,54.142,80.83z"/>
</g>
</svg>
