<?xml version="1.0" encoding="utf-8"?>
<!-- Generator: Adobe Illustrator 16.0.0, SVG Export Plug-In . SVG Version: 6.00 Build 0)  -->
<!DOCTYPE svg PUBLIC "-//W3C//DTD SVG 1.1//EN" "http://www.w3.org/Graphics/SVG/1.1/DTD/svg11.dtd">
<svg version="1.1" id="Layer_1" xmlns="http://www.w3.org/2000/svg" xmlns:xlink="http://www.w3.org/1999/xlink" x="0px" y="0px"
	 width="84.878px" height="80.878px" viewBox="-1.939 0.061 84.878 80.878" enable-background="new -1.939 0.061 84.878 80.878"
	 xml:space="preserve">
<g>
	<g>
		<path fill="none" stroke="#DC3645" stroke-width="0.8782" stroke-miterlimit="10" d="M74.625,0.5H6.375C2.025,0.5-1.5,3.858-1.5,8
			v65c0,4.143,3.525,7.5,7.875,7.5h68.25c4.35,0,7.875-3.357,7.875-7.5V8C82.5,3.858,78.975,0.5,74.625,0.5z M18.535,71h-8.427
			C8.943,71,8,70.024,8,68.821V12.179C8,10.975,8.943,10,10.108,10h4.214v32.679c0,1.203,0.943,2.18,2.106,2.18h2.107V71z
			 M37.392,71H24.75V44.858h2.108c1.162,0,2.107-0.977,2.107-2.18V10h4.213v32.679c0,1.203,0.944,2.18,2.107,2.18h2.107V71z
			 M56.25,71H43.606V44.858h2.109c1.164,0,2.104-0.977,2.104-2.18V10h4.214v32.679c0,1.203,0.945,2.18,2.109,2.18h2.106V71z
			 M73,68.821C73,70.024,72.056,71,70.894,71h-8.428V44.858h2.104c1.165,0,2.109-0.977,2.109-2.18V10h4.214
			C72.056,10,73,10.975,73,12.179V68.821z"/>
	</g>
</g>
</svg>
