<?xml version="1.0" encoding="utf-8"?>
<!-- Generator: Adobe Illustrator 16.0.0, SVG Export Plug-In . SVG Version: 6.00 Build 0)  -->
<!DOCTYPE svg PUBLIC "-//W3C//DTD SVG 1.1//EN" "http://www.w3.org/Graphics/SVG/1.1/DTD/svg11.dtd">
<svg version="1.1" id="Layer_1" xmlns="http://www.w3.org/2000/svg" xmlns:xlink="http://www.w3.org/1999/xlink" x="0px" y="0px"
	 width="60.748px" height="81px" viewBox="0 0 60.748 81" enable-background="new 0 0 60.748 81" xml:space="preserve">
<g>
	<g>
		<path fill="none" stroke="#5BC0DE" stroke-width="1.4" d="M30.664,37.695c-9.155,0-16.584-8.343-16.584-18.596
			c0-10.259,7.429-18.6,16.584-18.6c9.153,0,16.581,8.341,16.581,18.6C47.245,29.353,39.817,37.695,30.664,37.695L30.664,37.695z
			 M30.664,7.412c-5.324,0-9.681,5.245-9.681,11.688c0,6.438,4.356,11.683,9.681,11.683c5.323,0,9.679-5.244,9.679-11.683
			C40.342,12.657,35.987,7.412,30.664,7.412L30.664,7.412z"/>
	</g>
	<g>
		<path fill="none" stroke="#5BC0DE" stroke-width="1.4" d="M55.663,80.5H5.087c-1.813,0-3.325-1.406-3.454-3.223L0.524,60.964
			c-0.4-6.006,4.268-12.937,10.187-15.121c12.71-4.555,26.663-4.53,39.306-0.012c5.969,2.196,10.631,9.127,10.205,15.142
			l-1.105,16.305C58.99,79.093,57.49,80.5,55.663,80.5L55.663,80.5z M8.315,73.585h44.118l0.887-13.084
			c0.189-2.69-2.295-6.931-5.674-8.17c-11.078-3.959-23.452-3.979-34.567,0.008c-3.343,1.231-5.827,5.479-5.653,8.162L8.315,73.585
			L8.315,73.585z"/>
	</g>
</g>
</svg>
