<?xml version="1.0" encoding="utf-8"?>
<!-- Generator: Adobe Illustrator 16.0.0, SVG Export Plug-In . SVG Version: 6.00 Build 0)  -->
<!DOCTYPE svg PUBLIC "-//W3C//DTD SVG 1.1//EN" "http://www.w3.org/Graphics/SVG/1.1/DTD/svg11.dtd">
<svg version="1.1" id="artwork" xmlns="http://www.w3.org/2000/svg" xmlns:xlink="http://www.w3.org/1999/xlink" x="0px" y="0px"
	 width="184.049px" height="60.269px" viewBox="0 0 184.049 60.269" enable-background="new 0 0 184.049 60.269"
	 xml:space="preserve">
<path d="M184.049,52.132c0,4.494-3.641,8.136-8.135,8.136H8.136C3.644,60.269,0,56.626,0,52.132V8.201
	c0-4.493,3.644-8.136,8.136-8.136h167.778c4.493,0,8.135,3.643,8.135,8.136V52.132z"/>
<g>
	<rect x="14.525" y="0.167" fill="#FFFFFF" fill-opacity="0" width="155" height="60"/>
	<g>
		<path fill="#FFFFFF" stroke="#FFFFFF" stroke-width="0.2753" stroke-miterlimit="10" d="M64.719,16.699
			c0,1.153-0.341,2.072-1.025,2.756c-0.777,0.815-1.79,1.222-3.034,1.222c-1.192,0-2.206-0.412-3.039-1.239
			c-0.835-0.826-1.251-1.851-1.251-3.074s0.417-2.247,1.251-3.074c0.833-0.827,1.847-1.24,3.039-1.24
			c0.591,0,1.157,0.116,1.694,0.347c0.538,0.231,0.969,0.539,1.292,0.922l-0.726,0.727c-0.547-0.653-1.3-0.979-2.261-0.979
			c-0.87,0-1.622,0.305-2.255,0.917c-0.634,0.611-0.952,1.405-0.952,2.381c0,0.977,0.317,1.77,0.952,2.381
			c0.634,0.612,1.386,0.917,2.255,0.917c0.922,0,1.691-0.307,2.307-0.922c0.399-0.401,0.63-0.958,0.692-1.672H60.66v-0.992h4.001
			C64.7,16.292,64.719,16.499,64.719,16.699z"/>
		<path fill="#FFFFFF" stroke="#FFFFFF" stroke-width="0.2753" stroke-miterlimit="10" d="M71.063,13.25h-3.76v2.618h3.391v0.991
			h-3.391v2.618h3.76v1.015h-4.821v-8.257h4.821V13.25z"/>
		<path fill="#FFFFFF" stroke="#FFFFFF" stroke-width="0.2753" stroke-miterlimit="10" d="M75.538,20.493h-1.062V13.25H72.17v-1.015
			h5.675v1.015h-2.307V20.493z"/>
		<path fill="#FFFFFF" stroke="#FFFFFF" stroke-width="0.2753" stroke-miterlimit="10" d="M81.951,20.493v-8.257h1.061v8.257H81.951
			z"/>
		<path fill="#FFFFFF" stroke="#FFFFFF" stroke-width="0.2753" stroke-miterlimit="10" d="M87.719,20.493h-1.063V13.25H84.35v-1.015
			h5.675v1.015h-2.306V20.493z"/>
		<path fill="#FFFFFF" stroke="#FFFFFF" stroke-width="0.2753" stroke-miterlimit="10" d="M100.767,19.426
			c-0.813,0.834-1.82,1.251-3.029,1.251c-1.205,0-2.215-0.417-3.025-1.251c-0.813-0.834-1.219-1.855-1.219-3.062
			s0.406-2.228,1.219-3.062c0.811-0.834,1.82-1.252,3.025-1.252c1.201,0,2.207,0.42,3.023,1.257
			c0.814,0.838,1.221,1.857,1.221,3.057C101.982,17.571,101.578,18.592,100.767,19.426z M95.496,18.735
			c0.611,0.619,1.359,0.928,2.242,0.928c0.885,0,1.635-0.309,2.244-0.928c0.611-0.619,0.918-1.409,0.918-2.371
			c0-0.961-0.307-1.751-0.918-2.37c-0.609-0.619-1.359-0.928-2.244-0.928c-0.883,0-1.631,0.309-2.242,0.928
			c-0.609,0.619-0.918,1.409-0.918,2.37C94.578,17.326,94.886,18.116,95.496,18.735z"/>
		<path fill="#FFFFFF" stroke="#FFFFFF" stroke-width="0.2753" stroke-miterlimit="10" d="M103.472,20.493v-8.257h1.293l4.014,6.424
			h0.045l-0.045-1.591v-4.833h1.061v8.257h-1.107l-4.199-6.735h-0.045l0.045,1.591v5.144H103.472z"/>
	</g>
	<path fill="#FFFFFF" d="M93.232,32.539c-3.236,0-5.875,2.462-5.875,5.854c0,3.371,2.639,5.854,5.875,5.854
		c3.238,0,5.877-2.483,5.877-5.854C99.109,35,96.47,32.539,93.232,32.539z M93.232,41.94c-1.772,0-3.302-1.463-3.302-3.548
		c0-2.106,1.53-3.547,3.302-3.547c1.775,0,3.307,1.441,3.307,3.547C96.539,40.477,95.007,41.94,93.232,41.94z M80.415,32.539
		c-3.236,0-5.875,2.462-5.875,5.854c0,3.371,2.639,5.854,5.875,5.854c3.238,0,5.876-2.483,5.876-5.854
		C86.291,35,83.652,32.539,80.415,32.539z M80.415,41.94c-1.774,0-3.303-1.463-3.303-3.548c0-2.106,1.529-3.547,3.303-3.547
		s3.304,1.441,3.304,3.547C83.718,40.477,82.188,41.94,80.415,41.94z M65.167,34.334v2.484h5.943
		c-0.177,1.397-0.644,2.416-1.353,3.126c-0.865,0.865-2.217,1.818-4.59,1.818c-3.659,0-6.519-2.949-6.519-6.607
		s2.86-6.608,6.519-6.608c1.974,0,3.415,0.776,4.479,1.775l1.752-1.752c-1.486-1.418-3.459-2.505-6.231-2.505
		c-5.012,0-9.224,4.08-9.224,9.091s4.212,9.091,9.224,9.091c2.705,0,4.746-0.887,6.342-2.55c1.641-1.641,2.151-3.947,2.151-5.81
		c0-0.576-0.044-1.108-0.133-1.552H65.167z M127.527,36.264c-0.488-1.308-1.973-3.725-5.012-3.725c-3.016,0-5.521,2.373-5.521,5.854
		c0,3.282,2.484,5.854,5.809,5.854c2.684,0,4.236-1.641,4.879-2.594l-1.996-1.331c-0.664,0.976-1.574,1.619-2.883,1.619
		c-1.307,0-2.238-0.599-2.836-1.773l7.826-3.237L127.527,36.264z M119.544,38.215c-0.066-2.263,1.752-3.415,3.061-3.415
		c1.02,0,1.883,0.51,2.172,1.241L119.544,38.215z M113.181,43.891h2.572V26.685h-2.572V43.891z M108.966,33.847h-0.088
		c-0.578-0.687-1.686-1.308-3.082-1.308c-2.928,0-5.611,2.573-5.611,5.876c0,3.282,2.684,5.832,5.611,5.832
		c1.396,0,2.504-0.621,3.082-1.33h0.088v0.842c0,2.24-1.197,3.437-3.125,3.437c-1.574,0-2.551-1.13-2.949-2.084l-2.24,0.932
		c0.645,1.552,2.35,3.459,5.189,3.459c3.016,0,5.564-1.774,5.564-6.098v-10.51h-2.439V33.847z M106.017,41.94
		c-1.773,0-3.258-1.486-3.258-3.525c0-2.063,1.484-3.57,3.258-3.57c1.752,0,3.127,1.507,3.127,3.57
		C109.144,40.454,107.769,41.94,106.017,41.94z M139.574,26.685h-6.152v17.207h2.566v-6.519h3.586c2.848,0,5.646-2.061,5.646-5.344
		S142.421,26.685,139.574,26.685z M139.642,34.978h-3.654V29.08h3.654c1.92,0,3.01,1.59,3.01,2.949
		C142.652,33.362,141.562,34.978,139.642,34.978z M155.513,32.507c-1.859,0-3.785,0.819-4.582,2.634l2.279,0.952
		c0.486-0.952,1.395-1.262,2.346-1.262c1.328,0,2.68,0.796,2.701,2.213v0.178c-0.465-0.266-1.461-0.664-2.678-0.664
		c-2.457,0-4.959,1.35-4.959,3.874c0,2.302,2.014,3.786,4.271,3.786c1.727,0,2.68-0.775,3.275-1.683h0.09v1.328h2.48v-6.597
		C160.738,34.211,158.455,32.507,155.513,32.507z M155.201,41.937c-0.838,0-2.012-0.421-2.012-1.461
		c0-1.328,1.461-1.837,2.723-1.837c1.129,0,1.66,0.243,2.346,0.575C158.058,40.808,156.687,41.937,155.201,41.937z M169.767,32.883
		l-2.943,7.459h-0.088l-3.055-7.459h-2.768l4.584,10.426l-2.613,5.8h2.678l7.063-16.226H169.767z M146.636,43.891h2.566V26.685
		h-2.566V43.891z"/>
	<g>
		
			<linearGradient id="SVGID_1_" gradientUnits="userSpaceOnUse" x1="29.4604" y1="187.7446" x2="6.3619" y2="164.646" gradientTransform="matrix(1 0 0 -1 0 202.333)">
			<stop  offset="0" style="stop-color:#00A0FF"/>
			<stop  offset="0.0066" style="stop-color:#00A1FF"/>
			<stop  offset="0.2601" style="stop-color:#00BEFF"/>
			<stop  offset="0.5122" style="stop-color:#00D2FF"/>
			<stop  offset="0.7604" style="stop-color:#00DFFF"/>
			<stop  offset="1" style="stop-color:#00E3FF"/>
		</linearGradient>
		<path fill="url(#SVGID_1_)" d="M13.818,12.976c-0.4,0.423-0.637,1.081-0.637,1.933v30.439c0,0.853,0.237,1.51,0.637,1.934
			l0.102,0.1L30.971,30.33v-0.201v-0.201L13.92,12.876L13.818,12.976z"/>
		
			<linearGradient id="SVGID_2_" gradientUnits="userSpaceOnUse" x1="46.0225" y1="172.2046" x2="12.7195" y2="172.2046" gradientTransform="matrix(1 0 0 -1 0 202.333)">
			<stop  offset="0" style="stop-color:#FFE000"/>
			<stop  offset="0.4087" style="stop-color:#FFBD00"/>
			<stop  offset="0.7754" style="stop-color:#FFA500"/>
			<stop  offset="1" style="stop-color:#FF9C00"/>
		</linearGradient>
		<path fill="url(#SVGID_2_)" d="M36.655,36.016l-5.684-5.686v-0.201v-0.201l5.685-5.685l0.129,0.072l6.734,3.827
			c1.923,1.093,1.923,2.881,0,3.975l-6.734,3.826L36.655,36.016z"/>
		
			<linearGradient id="SVGID_3_" gradientUnits="userSpaceOnUse" x1="33.6265" y1="169.0454" x2="2.3025" y2="137.7214" gradientTransform="matrix(1 0 0 -1 0 202.333)">
			<stop  offset="0" style="stop-color:#FF3A44"/>
			<stop  offset="1" style="stop-color:#C31162"/>
		</linearGradient>
		<path fill="url(#SVGID_3_)" d="M36.785,35.943l-5.813-5.813L13.818,47.282c0.634,0.671,1.681,0.755,2.86,0.085L36.785,35.943"/>
		
			<linearGradient id="SVGID_4_" gradientUnits="userSpaceOnUse" x1="9.4995" y1="199.4888" x2="23.4863" y2="185.502" gradientTransform="matrix(1 0 0 -1 0 202.333)">
			<stop  offset="0" style="stop-color:#32A071"/>
			<stop  offset="0.0685" style="stop-color:#2DA771"/>
			<stop  offset="0.4762" style="stop-color:#15CF74"/>
			<stop  offset="0.8009" style="stop-color:#06E775"/>
			<stop  offset="1" style="stop-color:#00F076"/>
		</linearGradient>
		<path fill="url(#SVGID_4_)" d="M36.785,24.315L16.678,12.891c-1.179-0.669-2.227-0.586-2.86,0.085l17.153,17.153L36.785,24.315z"
			/>
		<g>
			<path opacity="0.2" enable-background="new    " d="M36.656,35.814L16.678,47.166c-1.118,0.634-2.117,0.592-2.758,0.015l0,0
				l-0.103,0.102l0,0l0.102,0.1l0-0.001c0.641,0.578,1.64,0.621,2.758-0.015l20.106-11.424L36.656,35.814z"/>
			<path opacity="0.12" enable-background="new    " d="M13.818,47.082c-0.4-0.424-0.637-1.081-0.637-1.934v0.201
				c0,0.852,0.237,1.51,0.637,1.933l0.103-0.102L13.818,47.082z"/>
		</g>
		<path opacity="0.12" enable-background="new    " d="M43.519,31.915l-6.863,3.899l0.129,0.128l6.734-3.826
			c0.961-0.547,1.443-1.267,1.443-1.987l0,0C44.88,30.781,44.391,31.419,43.519,31.915z"/>
		<path opacity="0.25" fill="#FFFFFF" enable-background="new    " d="M16.678,13.093l26.84,15.25
			c0.872,0.495,1.361,1.134,1.443,1.787l0,0c0-0.72-0.481-1.441-1.443-1.987l-26.84-15.25c-1.924-1.093-3.497-0.185-3.497,2.018
			v0.202C13.181,12.908,14.754,12,16.678,13.093z"/>
	</g>
</g>
</svg>
