<?xml version="1.0" encoding="utf-8"?>
<!-- Generator: Adobe Illustrator 16.0.0, SVG Export Plug-In . SVG Version: 6.00 Build 0)  -->
<!DOCTYPE svg PUBLIC "-//W3C//DTD SVG 1.1//EN" "http://www.w3.org/Graphics/SVG/1.1/DTD/svg11.dtd">
<svg version="1.1" id="Capa_1" xmlns="http://www.w3.org/2000/svg" xmlns:xlink="http://www.w3.org/1999/xlink" x="0px" y="0px"
	 width="158px" height="158px" viewBox="0 0 158 158" enable-background="new 0 0 158 158" xml:space="preserve">
<g>
	<path fill="#3089E2" d="M79,25.625c-29.431,0-53.375,23.944-53.375,53.375S49.568,132.375,79,132.375S132.375,108.432,132.375,79
		S108.432,25.625,79,25.625z M121.708,81.128c-0.482,9.785-4.64,19.066-11.553,26.009c-0.026,0.027-0.054,0.054-0.08,0.08
		c-12.03,12.031-31.605,12.031-43.637,0c-9.21-9.21-9.21-24.197,0-33.407c6.955-6.955,18.271-6.954,25.226,0
		c5.149,5.15,5.149,13.528,0,18.679c-3.403,3.402-8.767,3.682-12.49,0.834c-1.432-1.096-2.794-3.402-2.863-5.203
		c-0.068-1.789,0.577-3.486,1.801-4.771c1.917-2.009,2.22-5.13,0.439-7.259c-2.029-2.426-5.648-2.546-7.835-0.36
		c-3.241,3.241-5.026,7.55-5.026,12.133s1.785,8.892,5.026,12.132c7.845,7.846,20.61,7.845,28.454,0
		c9.289-9.289,9.289-24.402,0-33.691c-11.094-11.093-29.144-11.093-40.237,0c-13.35,13.349-13.35,35.071,0,48.419
		c1.601,1.602,3.302,3.041,5.082,4.324c-16.606-6.234-28.339-22.514-27.753-41.401c0.706-22.723,19.362-41.065,42.094-41.401
		c23.872-0.354,43.406,18.962,43.406,42.755C121.76,79.713,121.742,80.423,121.708,81.128z"/>
	<path fill="#3089E2" d="M79,22.831c2.932,0,5.308-2.376,5.308-5.308V5.308C84.308,2.376,81.932,0,79,0
		c-2.931,0-5.308,2.376-5.308,5.308v12.215C73.692,20.455,76.069,22.831,79,22.831z"/>
	<path fill="#3089E2" d="M79,135.169c-2.931,0-5.308,2.376-5.308,5.308v12.216c0,2.931,2.376,5.308,5.308,5.308
		c2.932,0,5.308-2.377,5.308-5.308v-12.216C84.307,137.545,81.932,135.169,79,135.169z"/>
	<path fill="#3089E2" d="M43.666,28.414c0.983,1.703,2.767,2.654,4.601,2.654c0.9,0,1.813-0.229,2.649-0.712
		c2.539-1.465,3.408-4.711,1.943-7.25L46.75,12.527c-1.466-2.539-4.712-3.409-7.25-1.943c-2.538,1.466-3.408,4.712-1.942,7.25
		L43.666,28.414z"/>
	<path fill="#3089E2" d="M114.335,129.587c-1.466-2.539-4.712-3.408-7.25-1.942c-2.539,1.465-3.409,4.711-1.942,7.25l6.107,10.579
		c0.982,1.703,2.768,2.654,4.602,2.654c0.9,0,1.813-0.229,2.648-0.712c2.539-1.465,3.408-4.712,1.943-7.25L114.335,129.587z"/>
	<path fill="#3089E2" d="M12.527,46.75l10.579,6.108c0.835,0.482,1.748,0.712,2.649,0.712c1.834,0,3.619-0.952,4.601-2.655
		c1.466-2.539,0.596-5.785-1.942-7.25l-10.579-6.107c-2.539-1.466-5.785-0.596-7.25,1.942C9.118,42.039,9.988,45.285,12.527,46.75z"
		/>
	<path fill="#3089E2" d="M145.474,111.25l-10.579-6.107c-2.539-1.467-5.785-0.597-7.25,1.942c-1.467,2.538-0.597,5.784,1.942,7.25
		l10.579,6.108c0.836,0.482,1.748,0.711,2.648,0.711c1.834,0,3.619-0.951,4.602-2.654
		C148.883,115.962,148.012,112.715,145.474,111.25z"/>
	<path fill="#3089E2" d="M22.831,79c0-2.931-2.376-5.308-5.308-5.308H5.308C2.376,73.692,0,76.069,0,79
		c0,2.932,2.376,5.308,5.308,5.308h12.215C20.455,84.308,22.831,81.932,22.831,79z"/>
	<path fill="#3089E2" d="M152.692,73.692h-12.216c-2.932,0-5.308,2.376-5.308,5.308c0,2.932,2.376,5.308,5.308,5.308h12.216
		c2.931,0,5.308-2.376,5.308-5.308C158,76.069,155.623,73.692,152.692,73.692z"/>
	<path fill="#3089E2" d="M23.106,105.143l-10.579,6.107c-2.539,1.465-3.408,4.712-1.942,7.25c0.983,1.703,2.767,2.654,4.601,2.654
		c0.9,0,1.813-0.229,2.649-0.711l10.579-6.108c2.539-1.466,3.408-4.712,1.942-7.25C28.891,104.546,25.645,103.676,23.106,105.143z"
		/>
	<path fill="#3089E2" d="M132.245,53.57c0.901,0,1.813-0.229,2.649-0.712l10.578-6.107c2.539-1.466,3.409-4.712,1.943-7.25
		c-1.467-2.539-4.712-3.408-7.25-1.942l-10.58,6.107c-2.538,1.466-3.408,4.712-1.941,7.25
		C128.627,52.619,130.411,53.57,132.245,53.57z"/>
	<path fill="#3089E2" d="M50.916,127.645c-2.539-1.467-5.785-0.597-7.25,1.941l-6.108,10.58c-1.466,2.538-0.596,5.784,1.942,7.25
		c0.836,0.482,1.749,0.712,2.649,0.712c1.834,0,3.619-0.952,4.602-2.655l6.108-10.578C54.324,132.355,53.454,129.109,50.916,127.645
		z"/>
	<path fill="#3089E2" d="M107.085,30.356c0.835,0.482,1.748,0.712,2.649,0.712c1.834,0,3.617-0.952,4.601-2.654l6.108-10.579
		c1.465-2.539,0.596-5.785-1.943-7.25c-2.538-1.466-5.785-0.596-7.25,1.943l-6.108,10.579
		C103.676,25.645,104.547,28.891,107.085,30.356z"/>
</g>
</svg>
