<?xml version="1.0" encoding="utf-8"?>
<!-- Generator: Adobe Illustrator 16.0.0, SVG Export Plug-In . SVG Version: 6.00 Build 0)  -->
<!DOCTYPE svg PUBLIC "-//W3C//DTD SVG 1.1//EN" "http://www.w3.org/Graphics/SVG/1.1/DTD/svg11.dtd">
<svg version="1.1" id="Capa_1" xmlns="http://www.w3.org/2000/svg" xmlns:xlink="http://www.w3.org/1999/xlink" x="0px" y="0px"
	 width="158px" height="158px" viewBox="0 0 158 158" enable-background="new 0 0 158 158" xml:space="preserve">
<g>
	<path fill="#3089E2" d="M157.315,140.519l-23.355-40.454c-5.618-9.73-15.542-15.661-26.701-16.021
		c5.313-9.862,5.155-21.459-0.479-31.217L83.425,12.373c-0.913-1.581-2.6-2.555-4.425-2.555c-1.825,0-3.512,0.974-4.424,2.555
		L51.219,52.826c-5.634,9.758-5.792,21.355-0.479,31.217c-11.159,0.36-21.083,6.291-26.701,16.021L0.685,140.519
		c-0.913,1.581-0.913,3.528,0,5.108c0.913,1.582,2.599,2.555,4.425,2.555h46.711c11.207,0,21.281-5.6,27.179-15.041
		c5.898,9.441,15.973,15.041,27.18,15.041h46.711c1.826,0,3.512-0.973,4.425-2.555C158.229,144.047,158.229,142.1,157.315,140.519z
		 M60.069,57.935L79,25.146l18.932,32.79c3.951,6.844,3.951,15.016,0,21.86C93.98,86.639,86.902,90.725,79,90.725
		c-7.903,0-14.979-4.086-18.931-10.93C56.118,72.951,56.118,64.779,60.069,57.935z M70.751,127.033
		c-3.951,6.844-11.028,10.931-18.931,10.931H13.958l18.931-32.79c3.952-6.844,11.028-10.93,18.931-10.93
		c7.902,0,14.979,4.086,18.931,10.93S74.703,120.189,70.751,127.033z M106.18,137.964c-7.902,0-14.98-4.087-18.932-10.931
		s-3.951-15.015,0-21.859c3.952-6.844,11.029-10.93,18.932-10.93s14.979,4.086,18.93,10.93l18.932,32.79H106.18z"/>
	<path fill="#3089E2" d="M51.821,102.947c-7.255,0-13.158,5.902-13.158,13.156c0,7.256,5.903,13.158,13.158,13.158
		c7.254,0,13.157-5.902,13.157-13.158C64.978,108.85,59.076,102.947,51.821,102.947z M51.821,119.043
		c-1.621,0-2.939-1.318-2.939-2.939c0-1.619,1.318-2.938,2.939-2.938c1.62,0,2.938,1.319,2.938,2.938
		C54.759,117.725,53.441,119.043,51.821,119.043z"/>
	<path fill="#3089E2" d="M106.18,102.947c-7.256,0-13.158,5.902-13.158,13.156c0,7.256,5.902,13.158,13.158,13.158
		c7.255,0,13.157-5.902,13.157-13.158C119.337,108.85,113.435,102.947,106.18,102.947z M106.18,119.043
		c-1.621,0-2.939-1.318-2.939-2.939c0-1.619,1.318-2.938,2.939-2.938s2.938,1.319,2.938,2.938
		C109.118,117.725,107.801,119.043,106.18,119.043z"/>
	<path fill="#3089E2" d="M79,82.021c7.254,0,13.158-5.902,13.158-13.157c0-7.254-5.903-13.157-13.158-13.157
		c-7.255,0-13.157,5.903-13.157,13.157C65.842,76.119,71.745,82.021,79,82.021z M79,65.926c1.621,0,2.939,1.318,2.939,2.938
		c0,1.621-1.318,2.939-2.939,2.939c-1.62,0-2.939-1.318-2.939-2.939C76.061,67.244,77.379,65.926,79,65.926z"/>
</g>
</svg>
