<?xml version="1.0" encoding="utf-8"?>
<!-- Generator: Adobe Illustrator 16.0.0, SVG Export Plug-In . SVG Version: 6.00 Build 0)  -->
<!DOCTYPE svg PUBLIC "-//W3C//DTD SVG 1.1//EN" "http://www.w3.org/Graphics/SVG/1.1/DTD/svg11.dtd">
<svg version="1.1" id="Capa_1" xmlns="http://www.w3.org/2000/svg" xmlns:xlink="http://www.w3.org/1999/xlink" x="0px" y="0px"
	 width="158px" height="158px" viewBox="0 0 158 158" enable-background="new 0 0 158 158" xml:space="preserve">
<g>
	<path fill="#3089E2" d="M147.339,49.916c-7.642-0.268-15.14,0.674-22.276,2.741c-0.49-7.472-2.17-14.796-5.023-21.855
		c-1.031-2.553-3.938-3.786-6.488-2.755c-6.709,2.711-12.861,6.353-18.363,10.862c-3.309-6.305-7.549-12.062-12.662-17.176
		c-0.935-0.935-2.202-1.46-3.524-1.46s-2.59,0.525-3.525,1.46c-5.114,5.114-9.354,10.871-12.662,17.177
		c-5.506-4.511-11.659-8.154-18.366-10.864c-2.554-1.031-5.458,0.202-6.489,2.755c-2.853,7.059-4.532,14.384-5.023,21.855
		c-7.135-2.067-14.633-3.009-22.275-2.742c-2.751,0.096-4.904,2.405-4.808,5.156c0.661,18.923,8.651,36.458,22.5,49.372
		c5.265,4.91,11.138,8.925,17.434,11.984c-4.66,6.869-7.324,14.956-7.617,23.357c-0.096,2.751,2.056,5.059,4.806,5.156
		c0.501,0.018,1.018,0.025,1.578,0.025c6.677,0,13.139-1.51,18.977-4.277c3.196,5.788,7.192,11.098,11.945,15.85
		C76.411,157.475,77.679,158,79,158s2.59-0.525,3.525-1.461c4.752-4.752,8.748-10.063,11.945-15.85
		c5.838,2.768,12.301,4.277,18.977,4.277c0.562,0,1.078-0.008,1.579-0.025c2.751-0.098,4.902-2.405,4.807-5.156
		c-0.294-8.4-2.958-16.488-7.619-23.359c6.296-3.059,12.169-7.074,17.433-11.982c13.849-12.914,21.839-30.448,22.5-49.372
		C152.243,52.32,150.091,50.012,147.339,49.916z M115.236,56.321c-6.783,3.127-13.097,7.354-18.719,12.596
		c-3.438,3.207-6.515,6.699-9.209,10.426c-0.719-3.442-1.696-6.835-2.932-10.165c3.053-6.933,7.304-13.152,12.664-18.509
		c4.555-4.56,9.753-8.323,15.502-11.228C114.245,44.935,115.145,50.585,115.236,56.321z M79.001,32.616
		c3.472,4.11,6.356,8.625,8.622,13.487c-3.284,3.613-6.164,7.53-8.623,11.721c-2.459-4.193-5.339-8.11-8.621-11.721
		C72.645,41.241,75.529,36.726,79.001,32.616z M45.455,39.441c5.75,2.904,10.95,6.667,15.51,11.23
		c5.806,5.802,10.319,12.627,13.414,20.287c2.955,7.307,4.453,14.993,4.453,22.84c0,0.082-0.001,0.16-0.001,0.24
		c-3.827-9.422-9.69-17.979-17.349-25.122c-5.623-5.243-11.937-9.47-18.72-12.597C42.854,50.585,43.754,44.935,45.455,39.441z
		 M16.219,59.919c29.518,1.474,53.868,24.181,57.397,53.523C44.098,111.969,19.748,89.262,16.219,59.919z M55.345,120.234
		c4.882,1.537,9.943,2.539,15.112,2.984c-5.553,6.353-13.281,10.484-21.707,11.521C49.778,129.461,52.036,124.492,55.345,120.234z
		 M79.001,145.658c-2.684-3.177-5.015-6.596-6.983-10.229c2.559-2.018,4.903-4.323,6.983-6.885c2.081,2.561,4.424,4.867,6.983,6.884
		C84.017,139.063,81.686,142.481,79.001,145.658z M109.254,134.74c-8.427-1.038-16.154-5.169-21.707-11.521
		c5.168-0.446,10.229-1.448,15.111-2.985C105.967,124.492,108.225,129.461,109.254,134.74z M84.381,113.442
		c1.702-14.259,8.314-27.327,18.938-37.233s24.121-15.59,38.463-16.293C138.252,89.262,113.902,111.971,84.381,113.442z"/>
	<path fill="#3089E2" d="M79.001,9.974c1.313,0,2.596-0.535,3.526-1.462c0.927-0.927,1.459-2.213,1.459-3.526
		c0-1.309-0.532-2.595-1.459-3.522C81.596,0.532,80.314,0,79.001,0c-1.313,0-2.596,0.532-3.526,1.462
		c-0.927,0.927-1.459,2.213-1.459,3.522c0,1.313,0.532,2.599,1.459,3.526C76.405,9.438,77.688,9.974,79.001,9.974z"/>
	<path fill="#3089E2" d="M42.58,19.94c1.313,0,2.599-0.532,3.526-1.459s1.459-2.213,1.459-3.526c0-1.313-0.532-2.595-1.459-3.522
		S43.893,9.97,42.58,9.97s-2.596,0.535-3.526,1.462c-0.927,0.927-1.459,2.21-1.459,3.522c0,1.313,0.532,2.599,1.459,3.526
		C39.984,19.409,41.267,19.94,42.58,19.94z"/>
	<path fill="#3089E2" d="M115.419,19.94c1.31,0,2.595-0.532,3.522-1.459c0.931-0.927,1.463-2.213,1.463-3.526
		c0-1.313-0.533-2.595-1.463-3.522c-0.928-0.927-2.209-1.462-3.522-1.462s-2.599,0.535-3.526,1.462s-1.459,2.213-1.459,3.522
		c0,1.313,0.531,2.599,1.459,3.526S114.105,19.94,115.419,19.94z"/>
</g>
</svg>
