<?xml version="1.0" encoding="utf-8"?>
<!-- Generator: Adobe Illustrator 16.0.0, SVG Export Plug-In . SVG Version: 6.00 Build 0)  -->
<!DOCTYPE svg PUBLIC "-//W3C//DTD SVG 1.1//EN" "http://www.w3.org/Graphics/SVG/1.1/DTD/svg11.dtd">
<svg version="1.1" id="Layer_1" xmlns="http://www.w3.org/2000/svg" xmlns:xlink="http://www.w3.org/1999/xlink" x="0px" y="0px"
	 width="108.667px" height="76.216px" viewBox="0 0 108.667 76.216" enable-background="new 0 0 108.667 76.216"
	 xml:space="preserve">
<g opacity="0.8">
	<path fill="#FFFFFF" d="M54.423,76.216c-0.072,0-0.108,0-0.18,0C32.808,51.377,32.806,24.838,54.243,0c0.072,0,0.108,0,0.18,0
		C75.86,24.839,75.858,51.376,54.423,76.216z"/>
</g>
<g opacity="0.8">
	<path fill="#FFFFFF" d="M54.37,76.344c-0.052-0.052-0.077-0.078-0.127-0.127c2.406-32.721,21.17-51.488,53.893-53.894
		c0.051,0.05,0.075,0.075,0.127,0.127C105.858,55.173,87.091,73.936,54.37,76.344z"/>
</g>
<g opacity="0.8">
	<path fill="#FFFFFF" d="M54.371,76.088c-0.052,0.052-0.078,0.078-0.127,0.127C21.521,73.81,2.757,55.044,0.351,22.323
		c0.05-0.05,0.075-0.075,0.127-0.127C33.2,24.601,51.962,43.368,54.371,76.088z"/>
</g>
<g opacity="0.8">
	<path fill="#FFFFFF" d="M54.401,76.303c-0.063-0.035-0.094-0.053-0.157-0.087c-6.734-32.11,6.111-55.335,36.893-66.692
		c0.063,0.034,0.094,0.052,0.157,0.087C98.025,41.722,85.182,64.944,54.401,76.303z"/>
</g>
<g opacity="0.8">
	<path fill="#FFFFFF" d="M54.483,76.082c-0.063,0.035-0.094,0.053-0.156,0.088C23.47,65.022,10.464,41.889,16.977,9.732
		c0.062-0.035,0.094-0.053,0.157-0.088C47.991,20.789,61,43.926,54.483,76.082z"/>
</g>
</svg>
