<?xml version="1.0" encoding="utf-8"?>
<!-- Generator: Adobe Illustrator 16.0.0, SVG Export Plug-In . SVG Version: 6.00 Build 0)  -->
<!DOCTYPE svg PUBLIC "-//W3C//DTD SVG 1.1//EN" "http://www.w3.org/Graphics/SVG/1.1/DTD/svg11.dtd">
<svg version="1.1" id="Layer_1" xmlns="http://www.w3.org/2000/svg" xmlns:xlink="http://www.w3.org/1999/xlink" x="0px" y="0px"
	 width="595.279px" height="420.801px" viewBox="0 210.545 595.279 420.801" enable-background="new 0 210.545 595.279 420.801"
	 xml:space="preserve">
<path fill="#607D8B" d="M543.963,569.766V400.418c0-104.699-85.205-189.873-189.935-189.873H241.251
	c-104.729,0-189.934,85.175-189.934,189.873v169.348H0v20.526h61.581h20.526h41.57c2.581,23.026,21.95,41.054,45.669,41.054
	c23.718,0,43.088-18.027,45.669-41.054h165.247c2.581,23.026,21.951,41.054,45.669,41.054c23.719,0,43.088-18.027,45.669-41.054
	h41.571h20.526h61.581v-20.526H543.963z"/>
<path fill="#EAEAEA" d="M513.172,569.766h-41.054v-61.582h-20.526v61.582v15.42c0,14.132-11.507,25.633-25.659,25.633
	c-14.151,0-25.658-11.501-25.658-25.633v-15.42v-61.582h-20.526v61.582H215.532v-61.582h-20.527v61.582v15.42
	c0,14.132-11.507,25.633-25.658,25.633c-14.152,0-25.659-11.501-25.659-25.633v-15.42v-61.582h-20.526v61.582H82.108H71.844V400.418
	c0-93.378,75.993-169.346,169.407-169.346h112.777c93.414,0,169.407,75.968,169.407,169.346v169.348H513.172z"/>
<g>
	<path fill="#607D8B" d="M248.297,356.728c-24.025,24.01-63.085,23.99-87.089,0c-4.009-4.009-10.505-4.009-14.514,0
		c-2.137,2.137-3.049,4.972-2.907,7.768h-0.101v51.318h20.527v-31.322c12.532,7.117,26.517,10.759,40.532,10.759
		c21.027,0,42.056-8.004,58.063-24.01c4.009-4.009,4.009-10.504,0-14.513C258.8,352.718,252.307,352.719,248.297,356.728z"/>
	<path fill="#607D8B" d="M433.039,356.728c-24.025,24.01-63.085,23.99-87.089,0c-4.009-4.009-10.505-4.009-14.514,0
		s-4.009,10.504,0,14.514c16.007,16.006,37.034,24.01,58.053,24.01c10.658,0,21.309-2.075,31.312-6.187v16.486h20.527v-28.685
		c2.146-1.75,4.225-3.624,6.224-5.624c4.009-4.009,4.009-10.504,0-14.514C443.543,352.719,437.048,352.719,433.039,356.728z"/>
	<rect x="143.688" y="436.34" fill="#607D8B" width="20.527" height="30.791"/>
	<rect x="420.801" y="426.077" fill="#607D8B" width="20.527" height="51.317"/>
</g>
</svg>
