<?xml version="1.0" encoding="utf-8"?>
<!-- Generator: Adobe Illustrator 16.0.0, SVG Export Plug-In . SVG Version: 6.00 Build 0)  -->
<!DOCTYPE svg PUBLIC "-//W3C//DTD SVG 1.1//EN" "http://www.w3.org/Graphics/SVG/1.1/DTD/svg11.dtd">
<svg version="1.1" id="Layer_1" xmlns="http://www.w3.org/2000/svg" xmlns:xlink="http://www.w3.org/1999/xlink" x="0px" y="0px"
	 width="1000px" height="573.247px" viewBox="-420.996 -207.619 1000 573.247"
	 enable-background="new -420.996 -207.619 1000 573.247" xml:space="preserve">
<g id="MACKBOOK_x5F_PRO_x5F_FRONT_1_">
	<g>
		<g>
			<g>
				<path fill="#E5E6E7" d="M457.151-204.853c17.193,0,31.112,13.924,31.112,31.119v498.62c0,3.535-0.692,6.805-1.892,9.889
					c-0.568,1.452-1.959,2.472-3.529,2.472h-807.729c-1.576,0-2.963-1.014-3.526-2.472c-1.196-3.071-1.891-6.428-1.891-9.889
					v-498.62c0-17.194,13.915-31.119,31.112-31.119H457.151 M457.151-207.619h-756.407c-18.708,0-33.884,15.179-33.884,33.885
					v498.62c0,3.721,0.692,7.429,2.083,10.902c1.008,2.577,3.399,4.215,6.106,4.215h807.801c2.707,0,5.104-1.638,6.105-4.215
					c1.385-3.535,2.077-7.182,2.077-10.902v-498.62C491.093-192.439,475.852-207.619,457.151-207.619L457.151-207.619z"/>
				
					<linearGradient id="SVGID_1_" gradientUnits="userSpaceOnUse" x1="7624.0288" y1="-13063.9473" x2="7624.0288" y2="-7668.9497" gradientTransform="matrix(0.0995 0 0 -0.0995 -679.6455 -967.421)">
					<stop  offset="0" style="stop-color:#808184"/>
					<stop  offset="0.5" style="stop-color:#F1F1F2"/>
					<stop  offset="0.9994" style="stop-color:#BBBDBF"/>
				</linearGradient>
				<path fill="url(#SVGID_1_)" d="M457.151-204.853c17.193,0,31.112,13.924,31.112,31.119v498.62c0,3.535-0.692,6.805-1.892,9.889
					c-0.568,1.452-1.959,2.472-3.529,2.472h-807.729c-1.576,0-2.963-1.014-3.526-2.472c-1.196-3.071-1.891-6.428-1.891-9.889
					v-498.62c0-17.194,13.915-31.119,31.112-31.119H457.151 M457.151-206.357h-756.407c-18.708,0-32.624,15.176-32.624,33.884
					v497.359c0,3.721,0.689,7.429,2.077,10.902c1.004,2.577,2.138,4.215,4.852,4.215h806.54c2.707,0,5.092-1.638,6.105-4.215
					c1.385-3.535,2.077-7.182,2.077-10.902v-496.102C489.833-191.688,476.032-206.104,457.151-206.357L457.151-206.357z"/>
				<path fill="#0E1316" d="M482.911,337.291c1.563,0,2.954-1.008,3.522-2.466c1.193-3.078,1.892-6.428,1.892-9.896v-498.663
					c0-17.194-13.918-31.119-31.112-31.119h-756.404c-17.197,0-31.112,13.924-31.112,31.119v498.62c0,3.535,0.689,6.866,1.891,9.889
					c0.563,1.452,1.95,2.472,3.526,2.472h807.797V337.291z"/>
			</g>
			<path opacity="0.1" fill="#F1F1F2" enable-background="new    " d="M-241.309,329.045h640.647l0.748,11.008H-242.13
				L-241.309,329.045z"/>
			
				<linearGradient id="SVGID_2_" gradientUnits="userSpaceOnUse" x1="7624.3247" y1="-13028.8379" x2="7624.3247" y2="-13086.626" gradientTransform="matrix(0.0995 0 0 -0.0995 -679.6455 -967.421)">
				<stop  offset="0" style="stop-color:#010101"/>
				<stop  offset="1" style="stop-color:#262B31"/>
			</linearGradient>
			<path fill="url(#SVGID_2_)" d="M-240.555,329.045h639.059l0.754,11.008h-640.567L-240.555,329.045z"/>
			<g>
				<path fill="#010101" d="M462.379,329.361h-766.8c-15.683,0-22.864-7.182-22.864-22.868v-480.354
					c0-15.683,12.791-28.467,28.467-28.467h755.646c15.687,0,28.468,12.793,28.468,28.467v480.354
					C485.228,322.179,478.065,329.361,462.379,329.361z M-298.812-199.491c-14.172,0-25.695,11.523-25.695,25.702v474.807
					c0,14.166,11.523,25.704,25.695,25.704h755.64c14.172,0,25.699-11.526,25.699-25.704v-474.878
					c0-14.163-11.521-25.698-25.699-25.698h-755.64V-199.491z"/>
				<g>
					<path fill="#272C31" d="M456.829-200.885h-755.64c-14.922,0-27.083,12.095-27.083,27.083v480.345
						c0,14.926,6.551,21.489,21.48,21.489h766.725c14.913,0,21.478-6.551,21.478-21.489v-480.403
						C483.85-188.79,471.761-200.885,456.829-200.885z"/>
					<path fill="#181B1E" d="M455.135-199.75H-297.18c-17.695,0-26.953,12.03-26.953,26.953V305.43
						c0,16.428,6.548,21.409,21.416,21.409h763.329c14.87,0,21.421-3.968,21.421-21.409v-478.222
						C482.088-187.656,472.638-199.75,455.135-199.75z"/>
					<path fill="#010101" d="M456.829-198.113h-755.64c-13.417,0-24.246,10.905-24.246,24.252v480.354
						c0,13.412,5.352,18.702,18.708,18.702h766.729c13.411,0,18.702-5.352,18.702-18.702v-480.354
						C481.082-187.214,470.185-198.113,456.829-198.113z"/>
				</g>
			</g>
			<path opacity="0.05" fill="#F1F1F2" enable-background="new    " d="M459.858-172.727v476.451h-761.76v-476.451H459.858
				 M459.858-175.499h-761.76c-1.511,0-2.771,1.261-2.771,2.772v476.451c0,1.508,1.261,2.769,2.771,2.769h761.76
				c1.495,0,2.769-1.248,2.769-2.769v-476.451C462.626-174.238,461.366-175.499,459.858-175.499L459.858-175.499z"/>
			<g>
				
					<radialGradient id="SVGID_3_" cx="4009.4595" cy="-8131.8013" r="8959.0527" gradientTransform="matrix(0.0995 0 0 -0.0995 -679.6455 -967.421)" gradientUnits="userSpaceOnUse">
					<stop  offset="0" style="stop-color:#67308F"/>
					<stop  offset="1" style="stop-color:#D91F5D"/>
				</radialGradient>
				<path fill="url(#SVGID_3_)" d="M-301.902-172.727h761.76v476.451h-761.76V-172.727z"/>
			</g>
			<g>
				<path opacity="0.5" fill="#F1F1F2" enable-background="new    " d="M79.009-189.859c2.209,0,4.039,1.758,4.039,4.033
					c0,2.207-1.768,4.03-4.039,4.03c-2.2,0-4.03-1.758-4.03-4.03C74.979-188.101,76.809-189.859,79.009-189.859z"/>
				<path fill="#231F20" d="M79.009-190.047c2.209,0,4.039,1.765,4.039,4.03c0,2.215-1.768,4.039-4.039,4.039
					c-2.2,0-4.03-1.768-4.03-4.039C74.979-188.283,76.809-190.047,79.009-190.047z"/>
				<path opacity="0.5" fill="#010101" enable-background="new    " d="M79.009-189.479c1.894,0,3.409,1.511,3.409,3.406
					c0,1.885-1.515,3.399-3.409,3.399c-1.885,0-3.399-1.514-3.399-3.399C75.609-187.974,77.124-189.479,79.009-189.479z"/>
				<path opacity="0.5" fill="#010101" enable-background="new    " d="M79.009-188.218c1.196,0,2.138,0.943,2.138,2.139
					s-0.942,2.139-2.138,2.139s-2.138-0.937-2.138-2.139C76.871-187.275,77.813-188.218,79.009-188.218z"/>
				
					<linearGradient id="SVGID_4_" gradientUnits="userSpaceOnUse" x1="7605.4097" y1="-7852.6792" x2="7637.4985" y2="-7852.6792" gradientTransform="matrix(0.0995 0 0 -0.0995 -679.6455 -967.421)">
					<stop  offset="0" style="stop-color:#67308F"/>
					<stop  offset="1" style="stop-color:#1D76BB"/>
				</linearGradient>
				<path fill="url(#SVGID_4_)" d="M79.009-187.656c0.887,0,1.576,0.695,1.576,1.576c0,0.877-0.688,1.576-1.576,1.576
					c-0.877,0-1.576-0.692-1.576-1.576C77.433-186.966,78.131-187.656,79.009-187.656z"/>
				<path fill="#FFFFFF" d="M79.009-187.34c0.38,0,0.689,0.191,0.689,0.507c0,0.253-0.315,0.507-0.689,0.507
					s-0.689-0.192-0.689-0.507C78.32-187.149,78.629-187.34,79.009-187.34z"/>
			</g>
		</g>
		<g>
			<g>
				
					<linearGradient id="SVGID_5_" gradientUnits="userSpaceOnUse" x1="2599.4966" y1="-13182.8672" x2="12649.7461" y2="-13182.8672" gradientTransform="matrix(0.0995 0 0 -0.0995 -679.6455 -967.421)">
					<stop  offset="0" style="stop-color:#929497"/>
					<stop  offset="0.01" style="stop-color:#FFFFFF"/>
					<stop  offset="0.03" style="stop-color:#BBBDBF"/>
					<stop  offset="0.05" style="stop-color:#F1F1F2"/>
					<stop  offset="0.95" style="stop-color:#F1F1F2"/>
					<stop  offset="0.97" style="stop-color:#BBBDBF"/>
					<stop  offset="0.99" style="stop-color:#FFFFFF"/>
					<stop  offset="1" style="stop-color:#929497"/>
				</linearGradient>
				<path fill="url(#SVGID_5_)" d="M-419.988,335.022h997.985c0.568,0,1.008,0.438,1.008,1.014v16.496
					c0,0.568-0.439,0.994-1.008,0.994h-997.985c-0.566,0-1.007-0.426-1.007-0.994v-16.496
					C-420.996,335.529-420.554,335.022-419.988,335.022z"/>
				
					<linearGradient id="SVGID_6_" gradientUnits="userSpaceOnUse" x1="7624.3677" y1="-13273.5332" x2="7624.3677" y2="-13392.042" gradientTransform="matrix(0.0995 0 0 -0.0995 -679.6455 -967.421)">
					<stop  offset="0" style="stop-color:#808184"/>
					<stop  offset="1" style="stop-color:#424143"/>
				</linearGradient>
				<path fill="url(#SVGID_6_)" d="M-420.489,353.607h998.937c0,0-9.443,6.112-21.409,9.116
					c-11.903,3.034-26.267,2.904-26.267,2.904h-903.588c0,0-13.662,0.074-25.448-2.904
					C-410.35,359.651-420.489,353.607-420.489,353.607z"/>
			</g>
			<path opacity="0.5" fill="#FFFFFF" enable-background="new    " d="M28.817,335.083h100.392h19.839
				c-0.073,6.552-4.468,11.842-9.956,11.842c-0.173,0-0.377,0-0.557,0H19.429c-0.188,0-0.377,0-0.563,0
				c-5.479,0-9.892-5.29-9.954-11.842H28.817z"/>
			
				<linearGradient id="SVGID_7_" gradientUnits="userSpaceOnUse" x1="6921.1548" y1="-13148.457" x2="8321.9746" y2="-13148.457" gradientTransform="matrix(0.0995 0 0 -0.0995 -679.6455 -967.421)">
				<stop  offset="0" style="stop-color:#929497"/>
				<stop  offset="0.2" style="stop-color:#D1D2D3"/>
				<stop  offset="0.5" style="stop-color:#FFFFFF"/>
				<stop  offset="0.8" style="stop-color:#D1D2D3"/>
				<stop  offset="1" style="stop-color:#929497"/>
			</linearGradient>
			<path fill="url(#SVGID_7_)" d="M29.062,335.083h99.833h19.777c-0.074,6.372-4.475,11.533-9.889,11.533c-0.197,0-0.396,0-0.581,0
				H19.748c-0.191,0-0.38,0-0.565,0c-5.417,0-9.827-5.161-9.892-11.533H29.062z"/>
			<g>
				<g opacity="0.5">
					<g>
						<path fill="#F1F1F2" d="M235.136,360.09c-2.769,0-4.969-0.13-4.969,0.259c0,0.377,2.2,1.187,4.969,1.187
							c2.775,0,4.981-0.821,4.981-1.187C240.118,359.96,237.912,360.09,235.136,360.09z M-77.184,360.09
							c-2.772,0-4.975-0.13-4.975,0.259c0,0.377,2.203,1.187,4.975,1.187s4.972-0.821,4.972-1.187
							C-72.14,359.96-74.412,360.09-77.184,360.09z"/>
					</g>
				</g>
				<g>
					<g>
						<path fill="#424143" d="M235.136,359.583c-2.769,0-4.969,0.327-4.969,0.766c0,0.377,2.2,0.755,4.969,0.755
							c2.775,0,4.981-0.328,4.981-0.755C240.118,359.96,237.912,359.583,235.136,359.583z M-77.184,359.583
							c-2.772,0-4.975,0.327-4.975,0.766c0,0.377,2.203,0.755,4.975,0.755s4.972-0.328,4.972-0.755
							C-72.14,359.96-74.412,359.583-77.184,359.583z"/>
					</g>
				</g>
			</g>
			
				<linearGradient id="SVGID_8_" gradientUnits="userSpaceOnUse" x1="2634.9341" y1="-13286.7539" x2="12614.4648" y2="-13286.7539" gradientTransform="matrix(0.0995 0 0 -0.0995 -679.6455 -967.421)">
				<stop  offset="0" style="stop-color:#FFFFFF;stop-opacity:0"/>
				<stop  offset="0.5" style="stop-color:#FFFFFF"/>
				<stop  offset="1" style="stop-color:#FFFFFF;stop-opacity:0"/>
			</linearGradient>
			<path opacity="0.5" fill="url(#SVGID_8_)" enable-background="new    " d="M-417.47,354.361h992.963v0.5H-417.47V354.361z"/>
		</g>
	</g>
	
		<radialGradient id="SVGID_9_" cx="8270.8633" cy="-7412.2759" r="5705.3252" gradientTransform="matrix(0.0995 0 0 -0.0995 -679.6455 -967.421)" gradientUnits="userSpaceOnUse">
		<stop  offset="0" style="stop-color:#FFFFFF"/>
		<stop  offset="1" style="stop-color:#FFFFFF;stop-opacity:0"/>
	</radialGradient>
	<polygon opacity="0.1" fill="url(#SVGID_9_)" enable-background="new    " points="11.052,-172.727 315.686,303.724 
		459.858,303.724 459.858,-172.727 	"/>
</g>
</svg>
