<?xml version="1.0" encoding="utf-8"?>
<!-- Generator: Adobe Illustrator 16.0.0, SVG Export Plug-In . SVG Version: 6.00 Build 0)  -->
<!DOCTYPE svg PUBLIC "-//W3C//DTD SVG 1.1//EN" "http://www.w3.org/Graphics/SVG/1.1/DTD/svg11.dtd">
<svg version="1.1" id="Layer_1" xmlns="http://www.w3.org/2000/svg" xmlns:xlink="http://www.w3.org/1999/xlink" x="0px" y="0px"
	 width="600px" height="1261.906px" viewBox="-160.903 -532.094 600 1261.906"
	 enable-background="new -160.903 -532.094 600 1261.906" xml:space="preserve">
<g id="IPHONE_x5F_5S_x5F_WHITE_x5F_FRONT_1_">
	<g>
		
			<linearGradient id="SVGID_1_" gradientUnits="userSpaceOnUse" x1="8977.6289" y1="-4784.2769" x2="9951.3398" y2="-4784.2769" gradientTransform="matrix(0.0988 0 0 -0.0988 -638.2031 -1001.2538)">
			<stop  offset="0.0216" style="stop-color:#231F20"/>
			<stop  offset="0.1012" style="stop-color:#FFFFFF"/>
			<stop  offset="0.1795" style="stop-color:#010101"/>
			<stop  offset="0.5" style="stop-color:#F1F1F2"/>
			<stop  offset="0.7985" style="stop-color:#010101"/>
			<stop  offset="0.8949" style="stop-color:#FFFFFF"/>
			<stop  offset="0.9771" style="stop-color:#231F20"/>
		</linearGradient>
		<polygon fill="url(#SVGID_1_)" points="339.841,-532.094 250.765,-532.094 246.665,-529.751 246.665,-525.04 342.868,-525.04 
			342.868,-529.751 		"/>
		
			<linearGradient id="SVGID_2_" gradientUnits="userSpaceOnUse" x1="8975.8105" y1="-4760.4331" x2="9950.7559" y2="-4760.4331" gradientTransform="matrix(0.0988 0 0 -0.0988 -638.2031 -1001.2538)">
			<stop  offset="0.0216" style="stop-color:#A8A7AC"/>
			<stop  offset="0.1012" style="stop-color:#FFFFFF"/>
			<stop  offset="0.1795" style="stop-color:#A8A7AC"/>
			<stop  offset="0.7985" style="stop-color:#A8A7AC"/>
			<stop  offset="0.8949" style="stop-color:#FFFFFF"/>
			<stop  offset="0.9771" style="stop-color:#A8A7AC"/>
		</linearGradient>
		<path fill="url(#SVGID_2_)" d="M250.765-532.094h88.881l3.222,2.343h-96.325L250.765-532.094z"/>
	</g>
	<g>
		
			<linearGradient id="SVGID_3_" gradientUnits="userSpaceOnUse" x1="4866.9224" y1="-7176.5732" x2="4866.9224" y2="-6593.9717" gradientTransform="matrix(0.0988 0 0 -0.0988 -638.2031 -1001.2538)">
			<stop  offset="0.0216" style="stop-color:#231F20"/>
			<stop  offset="0.1012" style="stop-color:#FFFFFF"/>
			<stop  offset="0.1795" style="stop-color:#010101"/>
			<stop  offset="0.5" style="stop-color:#F1F1F2"/>
			<stop  offset="0.7985" style="stop-color:#010101"/>
			<stop  offset="0.8949" style="stop-color:#FFFFFF"/>
			<stop  offset="0.9771" style="stop-color:#231F20"/>
		</linearGradient>
		<path fill="url(#SVGID_3_)" d="M-158.56-352.233c-1.074,1.025-1.733,1.66-2.343,2.343v52.826c0.757,0.879,1.27,1.416,2.343,2.392
			h4.761v-57.561H-158.56z"/>
		
			<linearGradient id="SVGID_4_" gradientUnits="userSpaceOnUse" x1="4842.8286" y1="-7176.5757" x2="4842.8286" y2="-6593.7241" gradientTransform="matrix(0.0988 0 0 -0.0988 -638.2031 -1001.2538)">
			<stop  offset="0.0216" style="stop-color:#A8A7AC"/>
			<stop  offset="0.1012" style="stop-color:#FFFFFF"/>
			<stop  offset="0.1795" style="stop-color:#A8A7AC"/>
			<stop  offset="0.7985" style="stop-color:#A8A7AC"/>
			<stop  offset="0.8949" style="stop-color:#FFFFFF"/>
			<stop  offset="0.9771" style="stop-color:#A8A7AC"/>
		</linearGradient>
		<path fill="url(#SVGID_4_)" d="M-158.56-294.672L-158.56-294.672c-1.074-0.976-1.586-1.538-2.343-2.417v-52.801
			c0.562-0.635,1.27-1.342,2.343-2.368l0,0C-158.56-348.816-158.56-296.381-158.56-294.672z"/>
		
			<linearGradient id="SVGID_5_" gradientUnits="userSpaceOnUse" x1="4866.9224" y1="-8246.9395" x2="4866.9224" y2="-7798.9941" gradientTransform="matrix(0.0988 0 0 -0.0988 -638.2031 -1001.2538)">
			<stop  offset="0.0216" style="stop-color:#231F20"/>
			<stop  offset="0.1012" style="stop-color:#FFFFFF"/>
			<stop  offset="0.1795" style="stop-color:#010101"/>
			<stop  offset="0.5" style="stop-color:#F1F1F2"/>
			<stop  offset="0.7985" style="stop-color:#010101"/>
			<stop  offset="0.8949" style="stop-color:#FFFFFF"/>
			<stop  offset="0.9771" style="stop-color:#231F20"/>
		</linearGradient>
		<path fill="url(#SVGID_5_)" d="M-158.56-233.156L-158.56-233.156c-1.074,1.025-1.733,1.733-2.343,2.343v39.546
			c0.757,0.732,1.27,1.293,2.343,2.368h4.761v-44.257H-158.56z"/>
		
			<linearGradient id="SVGID_6_" gradientUnits="userSpaceOnUse" x1="4842.8286" y1="-8246.8906" x2="4842.8286" y2="-7799.1875" gradientTransform="matrix(0.0988 0 0 -0.0988 -638.2031 -1001.2538)">
			<stop  offset="0.0216" style="stop-color:#A8A7AC"/>
			<stop  offset="0.1012" style="stop-color:#FFFFFF"/>
			<stop  offset="0.1795" style="stop-color:#A8A7AC"/>
			<stop  offset="0.7985" style="stop-color:#A8A7AC"/>
			<stop  offset="0.8949" style="stop-color:#FFFFFF"/>
			<stop  offset="0.9771" style="stop-color:#A8A7AC"/>
		</linearGradient>
		<path fill="url(#SVGID_6_)" d="M-158.56-188.923L-158.56-188.923c-1.074-1.074-1.586-1.611-2.343-2.392v-39.498
			c0.562-0.561,1.27-1.318,2.343-2.343l0,0C-158.56-229.739-158.56-190.608-158.56-188.923z"/>
		
			<linearGradient id="SVGID_7_" gradientUnits="userSpaceOnUse" x1="4866.9224" y1="-9125.6465" x2="4866.9224" y2="-8677.7012" gradientTransform="matrix(0.0988 0 0 -0.0988 -638.2031 -1001.2538)">
			<stop  offset="0.0216" style="stop-color:#231F20"/>
			<stop  offset="0.1012" style="stop-color:#FFFFFF"/>
			<stop  offset="0.1795" style="stop-color:#010101"/>
			<stop  offset="0.5" style="stop-color:#F1F1F2"/>
			<stop  offset="0.7985" style="stop-color:#010101"/>
			<stop  offset="0.8949" style="stop-color:#FFFFFF"/>
			<stop  offset="0.9771" style="stop-color:#231F20"/>
		</linearGradient>
		<path fill="url(#SVGID_7_)" d="M-158.56-146.399L-158.56-146.399c-1.074,1.074-1.733,1.757-2.343,2.368v39.546
			c0.757,0.708,1.27,1.318,2.343,2.343h4.761v-44.257H-158.56z"/>
		
			<linearGradient id="SVGID_8_" gradientUnits="userSpaceOnUse" x1="4842.8286" y1="-9125.5254" x2="4842.8286" y2="-8677.5879" gradientTransform="matrix(0.0988 0 0 -0.0988 -638.2031 -1001.2538)">
			<stop  offset="0.0216" style="stop-color:#A8A7AC"/>
			<stop  offset="0.1012" style="stop-color:#FFFFFF"/>
			<stop  offset="0.1795" style="stop-color:#A8A7AC"/>
			<stop  offset="0.7985" style="stop-color:#A8A7AC"/>
			<stop  offset="0.8949" style="stop-color:#FFFFFF"/>
			<stop  offset="0.9771" style="stop-color:#A8A7AC"/>
		</linearGradient>
		<path fill="url(#SVGID_8_)" d="M-158.56-102.191L-158.56-102.191c-1.074-1.025-1.586-1.586-2.343-2.343v-39.546
			c0.562-0.562,1.27-1.294,2.343-2.368l0,0C-158.56-142.933-158.56-103.826-158.56-102.191z"/>
	</g>
	
		<linearGradient id="SVGID_9_" gradientUnits="userSpaceOnUse" x1="4904.0103" y1="-11164.7578" x2="10922.293" y2="-11164.7578" gradientTransform="matrix(0.0988 0 0 -0.0988 -638.2031 -1001.2538)">
		<stop  offset="0" style="stop-color:#F1F1F2"/>
		<stop  offset="0.1" style="stop-color:#010101"/>
		<stop  offset="0.4873" style="stop-color:#F1F1F2"/>
		<stop  offset="0.9" style="stop-color:#010101"/>
		<stop  offset="1" style="stop-color:#F1F1F2"/>
	</linearGradient>
	<path fill="url(#SVGID_9_)" d="M413.221-500.262c-16.795-16.697-39.009-25.9-62.59-25.9H-67.287c-23.63,0-45.942,9.179-62.541,25.9
		c-16.648,16.722-25.827,38.887-25.827,62.517V641.444c0,23.532,9.179,45.844,25.827,62.541
		c16.599,16.648,38.862,25.827,62.541,25.827h417.918c23.483,0,45.795-9.228,62.541-25.827
		c16.648-16.794,25.777-39.009,25.777-62.541V-437.721C439.096-461.375,429.821-483.516,413.221-500.262z"/>
	<g>
		<path fill="#808184" d="M350.631-519.034H-67.287c-44.965,0-81.387,36.47-81.387,81.264V641.419
			c0,44.868,36.519,81.289,81.387,81.289h417.918c44.916,0,81.338-36.421,81.338-81.289V-437.77
			C431.969-482.442,395.499-519.034,350.631-519.034z"/>
		<path fill="#FFFFFF" d="M429.577,641.395c0,43.501-35.201,78.945-78.945,78.945H-67.287c-43.696,0-78.945-35.444-78.945-78.945
			V-437.77c0-43.5,35.249-78.872,78.945-78.872h417.918c43.5,0,78.896,35.372,78.896,78.872V641.419L429.577,641.395
			L429.577,641.395z"/>
	</g>
	
		<linearGradient id="SVGID_10_" gradientUnits="userSpaceOnUse" x1="7892.9771" y1="-6683.8032" x2="7892.9766" y2="-15753.7012" gradientTransform="matrix(0.0988 0 0 -0.0988 -638.2031 -1001.2538)">
		<stop  offset="0" style="stop-color:#67308F"/>
		<stop  offset="1" style="stop-color:#D91F5D"/>
	</linearGradient>
	<path fill="url(#SVGID_10_)" d="M-110.788-344.739h504.821v896.106h-504.821V-344.739z"/>
	
		<linearGradient id="SVGID_11_" gradientUnits="userSpaceOnUse" x1="8621.0352" y1="-4544.3428" x2="9172.1973" y2="-8306.6045" gradientTransform="matrix(0.0988 0 0 -0.0988 -638.2031 -1001.2538)">
		<stop  offset="0" style="stop-color:#FFFFFF"/>
		<stop  offset="1" style="stop-color:#FFFFFF;stop-opacity:0"/>
	</linearGradient>
	<path opacity="0.1" fill="url(#SVGID_11_)" enable-background="new    " d="M350.631-516.667H18.542L372.162,717.412
		c33.15-9.325,57.586-39.888,57.586-76.017V-437.77C429.577-481.295,394.375-516.667,350.631-516.667z"/>
	<path opacity="0.5" fill="#231F20" enable-background="new    " d="M394.034-344.739v896.106h-504.821v-896.106H394.034
		 M394.034-348.718h-504.821c-2.099,0-3.856,1.733-3.856,3.979v896.106c0,2.197,1.757,3.955,3.856,3.955h504.821
		c2.295,0,4.004-1.758,4.004-3.955v-896.106C398.038-346.985,396.329-348.718,394.034-348.718L394.034-348.718z"/>
	<g>
		<rect x="-155.655" y="-417.509" fill="#F1F1F2" width="9.423" height="9.423"/>
		<rect x="429.577" y="-417.509" fill="#F1F1F2" width="9.52" height="9.423"/>
		<rect x="-155.655" y="612.688" fill="#F1F1F2" width="9.423" height="9.472"/>
		<rect x="429.577" y="612.688" fill="#F1F1F2" width="9.52" height="9.472"/>
	</g>
	<g>
		<g>
			
				<linearGradient id="SVGID_12_" gradientUnits="userSpaceOnUse" x1="7320.8442" y1="-16560.1523" x2="8439.5938" y2="-16560.1523" gradientTransform="matrix(0.0988 0 0 -0.0988 -638.2031 -1001.2538)">
				<stop  offset="0.0216" style="stop-color:#727074"/>
				<stop  offset="0.1012" style="stop-color:#FFFFFF"/>
				<stop  offset="0.1795" style="stop-color:#727074"/>
				<stop  offset="0.7985" style="stop-color:#727074"/>
				<stop  offset="0.8949" style="stop-color:#FFFFFF"/>
				<stop  offset="0.9771" style="stop-color:#727074"/>
			</linearGradient>
			<path fill="url(#SVGID_12_)" d="M138.376,579.708c-30.563,0-55.364,24.631-55.364,55.145c0,30.538,24.802,55.218,55.364,55.218
				c30.489,0,55.169-24.68,55.169-55.218C193.545,604.339,168.817,579.708,138.376,579.708z M138.279,683.724
				c-26.95,0-48.969-21.872-48.969-48.871c0-26.901,22.019-48.969,48.969-48.969s48.822,22.067,48.822,48.969
				C187.174,661.852,165.327,683.724,138.279,683.724z"/>
		</g>
	</g>
	<g>
		<path fill="#F2F2F2" d="M193.545-397.907c0,6.567-5.272,11.839-11.839,11.839H94.901c-6.592,0-11.913-5.272-11.913-11.839l0,0
			c0-6.493,5.321-11.815,11.913-11.815h86.806C188.249-409.697,193.545-404.375,193.545-397.907L193.545-397.907z"/>
		<path opacity="0.1" fill="#0F0F10" enable-background="new    " d="M193.545-398.615c0,6.542-5.272,11.84-11.839,11.84H94.901
			c-6.592,0-11.913-5.297-11.913-11.84l0,0c0-6.566,5.321-11.839,11.913-11.839h86.806
			C188.249-410.454,193.545-405.181,193.545-398.615L193.545-398.615z"/>
		
			<linearGradient id="SVGID_13_" gradientUnits="userSpaceOnUse" x1="7453.2271" y1="-6165.8267" x2="8009.521" y2="-6219.0142" gradientTransform="matrix(0.0988 0 0 -0.0988 -638.2031 -1001.2538)">
			<stop  offset="0" style="stop-color:#FFFFFF"/>
			<stop  offset="1" style="stop-color:#000000;stop-opacity:0"/>
		</linearGradient>
		<path opacity="0.2" fill="url(#SVGID_13_)" enable-background="new    " d="M92.264-389.607c-0.684,0.513-1.416,1.025-2.295,1.685
			c1.587,0.83,3.271,1.147,4.98,1.147h73.867c-0.586-0.269-1.244-0.61-1.807-0.781c-3.319-1.587-6.443-3.174-9.886-4.199
			c-0.513-0.244-0.977-0.366-1.27-0.464H97C95.243-391.535,93.778-390.73,92.264-389.607z"/>
		
			<linearGradient id="SVGID_14_" gradientUnits="userSpaceOnUse" x1="8296.4609" y1="-6185.4448" x2="8397.2451" y2="-6185.4448" gradientTransform="matrix(0.0988 0 0 -0.0988 -638.2031 -1001.2538)">
			<stop  offset="0" style="stop-color:#000000;stop-opacity:0"/>
			<stop  offset="1" style="stop-color:#FFFFFF"/>
		</linearGradient>
		<path opacity="0.2" fill="url(#SVGID_14_)" enable-background="new    " d="M187.809-391.096c-0.195-0.292-1.27-1.367-2.441-2.392
			c-1.098,0.708-2.367,1.221-3.661,1.221h-2.246c0.098,1.806,0.684,3.637,1.343,5.493h0.903c2.929,0,5.59-1.147,7.641-2.881
			C188.834-390.168,188.273-390.583,187.809-391.096z"/>
		<path fill="#010101" d="M181.804-404.961H94.95c-3.442,0-6.299,2.856-6.299,6.347c0,3.491,2.856,6.347,6.299,6.347H97h58.733
			h23.776h2.295c1.269,0,2.538-0.513,3.612-1.221c1.587-1.171,2.734-3.076,2.734-5.126
			C188.151-402.105,185.197-404.961,181.804-404.961z"/>
	</g>
	<g>
		<path opacity="0.2" fill="#FFFFFF" enable-background="new    " d="M138.376-464.134c6.054,0,11.132,5.078,11.132,11.229
			c0,6.2-5.078,11.18-11.132,11.18c-6.249,0-11.204-4.98-11.204-11.18C127.172-459.056,132.127-464.134,138.376-464.134z"/>
		
			<linearGradient id="SVGID_15_" gradientUnits="userSpaceOnUse" x1="7859.7505" y1="-5456.9575" x2="7859.7505" y2="-5677.0474" gradientTransform="matrix(0.0988 0 0 -0.0988 -638.2031 -1001.2538)">
			<stop  offset="0" style="stop-color:#010101"/>
			<stop  offset="1" style="stop-color:#231F20"/>
		</linearGradient>
		<path fill="url(#SVGID_15_)" d="M138.376-464.72c6.054,0,11.132,5.029,11.132,11.131c0,6.201-5.078,11.181-11.132,11.181
			c-6.249,0-11.204-4.98-11.204-11.181C127.172-459.715,132.127-464.72,138.376-464.72z"/>
		<path fill="#2BACE2" d="M138.376-458.348c2.563,0,4.761,2.124,4.761,4.76c0,2.686-2.246,4.785-4.761,4.785
			c-2.71,0-4.76-2.099-4.76-4.785C133.617-456.2,135.667-458.348,138.376-458.348z"/>
		
			<linearGradient id="SVGID_16_" gradientUnits="userSpaceOnUse" x1="7845.9546" y1="-5543.4214" x2="7913.7046" y2="-5543.4214" gradientTransform="matrix(0.0988 0 0 -0.0988 -638.2031 -1001.2538)">
			<stop  offset="0" style="stop-color:#2075BC"/>
			<stop  offset="1" style="stop-color:#922A8E"/>
		</linearGradient>
		<path fill="url(#SVGID_16_)" d="M138.376-456.908c1.758,0,3.247,1.563,3.247,3.32c0,1.807-1.489,3.369-3.247,3.369
			c-1.831,0-3.417-1.563-3.417-3.369C134.983-455.37,136.545-456.908,138.376-456.908z"/>
		<path fill="#FFFFFF" d="M138.376-456.029c0.684,0,1.392,0.391,1.392,0.879c0,0.537-0.635,0.976-1.392,0.976
			c-0.854,0-1.538-0.439-1.538-0.976C136.887-455.639,137.522-456.029,138.376-456.029z"/>
	</g>
	<path opacity="0.5" fill="#0F0F10" enable-background="new    " d="M54.525-405.694c3.905,0,7.079,3.125,7.079,7.079
		c0,3.955-3.174,7.08-7.079,7.08c-3.955,0-7.226-3.125-7.226-7.08C47.299-402.569,50.57-405.694,54.525-405.694z"/>
</g>
</svg>
