<?xml version="1.0" encoding="utf-8"?>
<!-- Generator: Adobe Illustrator 16.0.0, SVG Export Plug-In . SVG Version: 6.00 Build 0)  -->
<!DOCTYPE svg PUBLIC "-//W3C//DTD SVG 1.1//EN" "http://www.w3.org/Graphics/SVG/1.1/DTD/svg11.dtd">
<svg version="1.1" id="Layer_1" xmlns="http://www.w3.org/2000/svg" xmlns:xlink="http://www.w3.org/1999/xlink" x="0px" y="0px"
	 width="158.008px" height="90.578px" viewBox="0 33.716 158.008 90.578" enable-background="new 0 33.716 158.008 90.578"
	 xml:space="preserve">
<g id="MACKBOOK_x5F_PRO_x5F_FRONT_1_">
	<g>
		<g>
			<g>
				<path fill="#E5E6E7" d="M138.754,34.153c2.717,0,4.916,2.2,4.916,4.917v78.786c0,0.559-0.109,1.075-0.299,1.563
					c-0.09,0.229-0.31,0.391-0.558,0.391H15.186c-0.249,0-0.468-0.16-0.557-0.391c-0.189-0.485-0.299-1.016-0.299-1.563V39.07
					c0-2.717,2.199-4.917,4.916-4.917H138.754 M138.754,33.716H19.236c-2.956,0-5.354,2.398-5.354,5.354v78.786
					c0,0.588,0.109,1.174,0.329,1.723c0.159,0.407,0.537,0.666,0.965,0.666h127.639c0.428,0,0.807-0.259,0.965-0.666
					c0.219-0.559,0.328-1.135,0.328-1.723V39.07C144.118,36.114,141.709,33.716,138.754,33.716L138.754,33.716z"/>
				
					<linearGradient id="SVGID_1_" gradientUnits="userSpaceOnUse" x1="7624.5239" y1="-10919.3027" x2="7624.5239" y2="-10066.8486" gradientTransform="matrix(0.0995 0 0 -0.0995 -679.6455 -967.421)">
					<stop  offset="0" style="stop-color:#808184"/>
					<stop  offset="0.5" style="stop-color:#F1F1F2"/>
					<stop  offset="0.9994" style="stop-color:#BBBDBF"/>
				</linearGradient>
				<path fill="url(#SVGID_1_)" d="M138.754,34.153c2.717,0,4.916,2.2,4.916,4.917v78.786c0,0.559-0.109,1.075-0.299,1.563
					c-0.09,0.229-0.31,0.391-0.558,0.391H15.186c-0.249,0-0.468-0.16-0.557-0.391c-0.189-0.485-0.299-1.016-0.299-1.563V39.07
					c0-2.717,2.199-4.917,4.916-4.917H138.754 M138.754,33.915H19.236c-2.956,0-5.155,2.398-5.155,5.354v78.587
					c0,0.588,0.109,1.174,0.328,1.723c0.159,0.407,0.338,0.666,0.767,0.666h127.44c0.428,0,0.805-0.259,0.965-0.666
					c0.219-0.559,0.328-1.135,0.328-1.723V39.468C143.918,36.233,141.738,33.955,138.754,33.915L138.754,33.915z"/>
				<path fill="#0E1316" d="M142.825,119.816c0.247,0,0.467-0.159,0.557-0.39c0.188-0.486,0.299-1.016,0.299-1.563V39.07
					c0-2.717-2.199-4.917-4.916-4.917H19.246c-2.717,0-4.916,2.2-4.916,4.917v78.786c0,0.559,0.109,1.085,0.299,1.563
					c0.089,0.229,0.308,0.391,0.557,0.391h127.639V119.816z"/>
			</g>
			<path opacity="0.1" fill="#F1F1F2" enable-background="new    " d="M28.392,118.513H129.62l0.118,1.739H28.262L28.392,118.513z"
				/>
			
				<linearGradient id="SVGID_2_" gradientUnits="userSpaceOnUse" x1="7624.5708" y1="-10913.7598" x2="7624.5708" y2="-10922.8887" gradientTransform="matrix(0.0995 0 0 -0.0995 -679.6455 -967.421)">
				<stop  offset="0" style="stop-color:#010101"/>
				<stop  offset="1" style="stop-color:#262B31"/>
			</linearGradient>
			<path fill="url(#SVGID_2_)" d="M28.511,118.513h100.977l0.119,1.739H28.392L28.511,118.513z"/>
			<g>
				<path fill="#010101" d="M139.581,118.563H18.42c-2.478,0-3.613-1.135-3.613-3.613v-75.9c0-2.478,2.021-4.498,4.498-4.498
					h119.398c2.479,0,4.498,2.021,4.498,4.498v75.9C143.191,117.428,142.059,118.563,139.581,118.563z M19.306,35
					c-2.239,0-4.06,1.821-4.06,4.061v75.023c0,2.238,1.821,4.062,4.06,4.062h119.397c2.239,0,4.061-1.821,4.061-4.062V39.05
					c0-2.238-1.82-4.061-4.061-4.061H19.306V35z"/>
				<g>
					<path fill="#272C31" d="M138.704,34.78H19.306c-2.358,0-4.279,1.911-4.279,4.279v75.898c0,2.358,1.035,3.396,3.394,3.396
						H139.57c2.356,0,3.394-1.035,3.394-3.396V39.05C142.973,36.691,141.063,34.78,138.704,34.78z"/>
					<path fill="#181B1E" d="M138.436,34.959H19.564c-2.796,0-4.259,1.901-4.259,4.259v75.564c0,2.596,1.035,3.383,3.384,3.383
						h120.612c2.35,0,3.385-0.627,3.385-3.383V39.219C142.695,36.87,141.202,34.959,138.436,34.959z"/>
					<path fill="#010101" d="M138.704,35.218H19.306c-2.12,0-3.831,1.723-3.831,3.832v75.9c0,2.119,0.846,2.955,2.956,2.955h121.149
						c2.119,0,2.955-0.846,2.955-2.955v-75.9C142.536,36.94,140.814,35.218,138.704,35.218z"/>
				</g>
			</g>
			<path opacity="0.05" fill="#F1F1F2" enable-background="new    " d="M139.182,39.229v75.283H18.818V39.229H139.182
				 M139.182,38.791H18.818c-0.239,0-0.438,0.199-0.438,0.438v75.283c0,0.238,0.199,0.438,0.438,0.438h120.364
				c0.236,0,0.438-0.197,0.438-0.438V39.229C139.62,38.99,139.42,38.791,139.182,38.791L139.182,38.791z"/>
			<g>
				
					<radialGradient id="SVGID_3_" cx="7053.3931" cy="-10139.9844" r="1415.5996" gradientTransform="matrix(0.0995 0 0 -0.0995 -679.6455 -967.421)" gradientUnits="userSpaceOnUse">
					<stop  offset="0" style="stop-color:#67308F"/>
					<stop  offset="1" style="stop-color:#D91F5D"/>
				</radialGradient>
				<path fill="url(#SVGID_3_)" d="M18.818,39.229h120.364v75.283H18.818V39.229z"/>
			</g>
			<g>
				<path opacity="0.5" fill="#F1F1F2" enable-background="new    " d="M79.005,36.522c0.349,0,0.638,0.278,0.638,0.637
					c0,0.349-0.279,0.637-0.638,0.637c-0.348,0-0.637-0.278-0.637-0.637C78.368,36.8,78.657,36.522,79.005,36.522z"/>
				<path fill="#231F20" d="M79.005,36.492c0.349,0,0.638,0.279,0.638,0.637c0,0.35-0.279,0.638-0.638,0.638
					c-0.348,0-0.637-0.279-0.637-0.638C78.368,36.771,78.657,36.492,79.005,36.492z"/>
				<path opacity="0.5" fill="#010101" enable-background="new    " d="M79.005,36.582c0.299,0,0.539,0.239,0.539,0.538
					c0,0.298-0.239,0.537-0.539,0.537c-0.298,0-0.537-0.239-0.537-0.537C78.468,36.82,78.707,36.582,79.005,36.582z"/>
				<path opacity="0.5" fill="#010101" enable-background="new    " d="M79.005,36.781c0.189,0,0.338,0.149,0.338,0.338
					s-0.149,0.338-0.338,0.338s-0.338-0.148-0.338-0.338C78.667,36.93,78.816,36.781,79.005,36.781z"/>
				
					<linearGradient id="SVGID_4_" gradientUnits="userSpaceOnUse" x1="7621.5815" y1="-10095.8828" x2="7626.6553" y2="-10095.8828" gradientTransform="matrix(0.0995 0 0 -0.0995 -679.6455 -967.421)">
					<stop  offset="0" style="stop-color:#67308F"/>
					<stop  offset="1" style="stop-color:#1D76BB"/>
				</linearGradient>
				<path fill="url(#SVGID_4_)" d="M79.005,36.87c0.14,0,0.249,0.11,0.249,0.249c0,0.139-0.109,0.249-0.249,0.249
					c-0.139,0-0.249-0.109-0.249-0.249C78.756,36.979,78.866,36.87,79.005,36.87z"/>
				<path fill="#FFFFFF" d="M79.005,36.92c0.06,0,0.109,0.03,0.109,0.08c0,0.04-0.05,0.08-0.109,0.08s-0.109-0.03-0.109-0.08
					S78.945,36.92,79.005,36.92z"/>
			</g>
		</g>
		<g>
			<g>
				
					<linearGradient id="SVGID_5_" gradientUnits="userSpaceOnUse" x1="6830.606" y1="-10938.0977" x2="8418.6289" y2="-10938.0977" gradientTransform="matrix(0.0995 0 0 -0.0995 -679.6455 -967.421)">
					<stop  offset="0" style="stop-color:#929497"/>
					<stop  offset="0.01" style="stop-color:#FFFFFF"/>
					<stop  offset="0.03" style="stop-color:#BBBDBF"/>
					<stop  offset="0.05" style="stop-color:#F1F1F2"/>
					<stop  offset="0.95" style="stop-color:#F1F1F2"/>
					<stop  offset="0.97" style="stop-color:#BBBDBF"/>
					<stop  offset="0.99" style="stop-color:#FFFFFF"/>
					<stop  offset="1" style="stop-color:#929497"/>
				</linearGradient>
				<path fill="url(#SVGID_5_)" d="M0.159,119.458h157.69c0.09,0,0.159,0.069,0.159,0.16v2.606c0,0.09-0.069,0.157-0.159,0.157
					H0.159c-0.089,0-0.159-0.067-0.159-0.157v-2.606C0,119.538,0.07,119.458,0.159,119.458z"/>
				
					<linearGradient id="SVGID_6_" gradientUnits="userSpaceOnUse" x1="7624.5786" y1="-10952.4199" x2="7624.5786" y2="-10971.1494" gradientTransform="matrix(0.0995 0 0 -0.0995 -679.6455 -967.421)">
					<stop  offset="0" style="stop-color:#808184"/>
					<stop  offset="1" style="stop-color:#424143"/>
				</linearGradient>
				<path fill="url(#SVGID_6_)" d="M0.08,122.394h157.84c0,0-1.492,0.966-3.383,1.44c-1.881,0.479-4.15,0.459-4.15,0.459H7.613
					c0,0-2.159,0.012-4.021-0.459C1.682,123.349,0.08,122.394,0.08,122.394z"/>
			</g>
			<path opacity="0.5" fill="#FFFFFF" enable-background="new    " d="M71.074,119.467h15.863h3.135
				c-0.012,1.035-0.706,1.871-1.573,1.871c-0.027,0-0.06,0-0.088,0h-18.82c-0.03,0-0.06,0-0.089,0c-0.866,0-1.563-0.836-1.573-1.871
				H71.074z"/>
			
				<linearGradient id="SVGID_7_" gradientUnits="userSpaceOnUse" x1="7513.4653" y1="-10932.6602" x2="7734.8091" y2="-10932.6602" gradientTransform="matrix(0.0995 0 0 -0.0995 -679.6455 -967.421)">
				<stop  offset="0" style="stop-color:#929497"/>
				<stop  offset="0.2" style="stop-color:#D1D2D3"/>
				<stop  offset="0.5" style="stop-color:#FFFFFF"/>
				<stop  offset="0.8" style="stop-color:#D1D2D3"/>
				<stop  offset="1" style="stop-color:#929497"/>
			</linearGradient>
			<path fill="url(#SVGID_7_)" d="M71.113,119.467h15.774h3.125c-0.012,1.007-0.707,1.822-1.563,1.822c-0.031,0-0.063,0-0.092,0
				H69.641c-0.03,0-0.06,0-0.089,0c-0.856,0-1.553-0.815-1.563-1.822H71.113z"/>
			<g>
				<g opacity="0.5">
					<g>
						<path fill="#F1F1F2" d="M103.674,123.418c-0.438,0-0.785-0.021-0.785,0.041c0,0.06,0.348,0.188,0.785,0.188
							c0.438,0,0.787-0.13,0.787-0.188C104.461,123.398,104.113,123.418,103.674,123.418z M54.325,123.418
							c-0.438,0-0.786-0.021-0.786,0.041c0,0.06,0.348,0.188,0.786,0.188s0.786-0.13,0.786-0.188
							C55.122,123.398,54.763,123.418,54.325,123.418z"/>
					</g>
				</g>
				<g>
					<g>
						<path fill="#424143" d="M103.674,123.338c-0.438,0-0.785,0.052-0.785,0.121c0,0.06,0.348,0.119,0.785,0.119
							c0.438,0,0.787-0.052,0.787-0.119C104.461,123.398,104.113,123.338,103.674,123.338z M54.325,123.338
							c-0.438,0-0.786,0.052-0.786,0.121c0,0.06,0.348,0.119,0.786,0.119s0.786-0.052,0.786-0.119
							C55.122,123.398,54.763,123.338,54.325,123.338z"/>
					</g>
				</g>
			</g>
			
				<linearGradient id="SVGID_8_" gradientUnits="userSpaceOnUse" x1="6836.2075" y1="-10954.5156" x2="8413.0508" y2="-10954.5156" gradientTransform="matrix(0.0995 0 0 -0.0995 -679.6455 -967.421)">
				<stop  offset="0" style="stop-color:#FFFFFF;stop-opacity:0"/>
				<stop  offset="0.5" style="stop-color:#FFFFFF"/>
				<stop  offset="1" style="stop-color:#FFFFFF;stop-opacity:0"/>
			</linearGradient>
			<path opacity="0.5" fill="url(#SVGID_8_)" enable-background="new    " d="M0.557,122.513h156.896v0.079H0.557V122.513z"/>
		</g>
	</g>
	
		<radialGradient id="SVGID_9_" cx="7726.729" cy="-10026.293" r="901.4839" gradientTransform="matrix(0.0995 0 0 -0.0995 -679.6455 -967.421)" gradientUnits="userSpaceOnUse">
		<stop  offset="0" style="stop-color:#FFFFFF"/>
		<stop  offset="1" style="stop-color:#FFFFFF;stop-opacity:0"/>
	</radialGradient>
	<polygon opacity="0.1" fill="url(#SVGID_9_)" enable-background="new    " points="68.267,39.229 116.402,114.512 139.182,114.512 
		139.182,39.229 	"/>
</g>
<g id="IPHONE_x5F_5S_x5F_WHITE_x5F_FRONT_1_">
	<g>
		
			<linearGradient id="SVGID_10_" gradientUnits="userSpaceOnUse" x1="7911.8247" y1="-10880.6914" x2="7950.7778" y2="-10880.6914" gradientTransform="matrix(0.0988 0 0 -0.0988 -638.2031 -1001.2538)">
			<stop  offset="0.0216" style="stop-color:#231F20"/>
			<stop  offset="0.1012" style="stop-color:#FFFFFF"/>
			<stop  offset="0.1795" style="stop-color:#010101"/>
			<stop  offset="0.5" style="stop-color:#F1F1F2"/>
			<stop  offset="0.7985" style="stop-color:#010101"/>
			<stop  offset="0.8949" style="stop-color:#FFFFFF"/>
			<stop  offset="0.9771" style="stop-color:#231F20"/>
		</linearGradient>
		<polygon fill="url(#SVGID_10_)" points="147.127,73.618 143.564,73.618 143.4,73.711 143.4,73.9 147.249,73.9 147.249,73.711 		
			"/>
		
			<linearGradient id="SVGID_11_" gradientUnits="userSpaceOnUse" x1="7911.7466" y1="-10879.7383" x2="7950.7544" y2="-10879.7383" gradientTransform="matrix(0.0988 0 0 -0.0988 -638.2031 -1001.2538)">
			<stop  offset="0.0216" style="stop-color:#A8A7AC"/>
			<stop  offset="0.1012" style="stop-color:#FFFFFF"/>
			<stop  offset="0.1795" style="stop-color:#A8A7AC"/>
			<stop  offset="0.7985" style="stop-color:#A8A7AC"/>
			<stop  offset="0.8949" style="stop-color:#FFFFFF"/>
			<stop  offset="0.9771" style="stop-color:#A8A7AC"/>
		</linearGradient>
		<path fill="url(#SVGID_11_)" d="M143.564,73.618h3.556l0.129,0.094h-3.854L143.564,73.618z"/>
	</g>
	<g>
		
			<linearGradient id="SVGID_12_" gradientUnits="userSpaceOnUse" x1="7747.3716" y1="-10976.3945" x2="7747.3716" y2="-10953.082" gradientTransform="matrix(0.0988 0 0 -0.0988 -638.2031 -1001.2538)">
			<stop  offset="0.0216" style="stop-color:#231F20"/>
			<stop  offset="0.1012" style="stop-color:#FFFFFF"/>
			<stop  offset="0.1795" style="stop-color:#010101"/>
			<stop  offset="0.5" style="stop-color:#F1F1F2"/>
			<stop  offset="0.7985" style="stop-color:#010101"/>
			<stop  offset="0.8949" style="stop-color:#FFFFFF"/>
			<stop  offset="0.9771" style="stop-color:#231F20"/>
		</linearGradient>
		<path fill="url(#SVGID_12_)" d="M127.189,80.813c-0.043,0.041-0.069,0.066-0.094,0.094v2.113c0.03,0.035,0.051,0.057,0.094,0.096
			h0.19v-2.303H127.189z"/>
		
			<linearGradient id="SVGID_13_" gradientUnits="userSpaceOnUse" x1="7746.4106" y1="-10976.3945" x2="7746.4106" y2="-10953.0742" gradientTransform="matrix(0.0988 0 0 -0.0988 -638.2031 -1001.2538)">
			<stop  offset="0.0216" style="stop-color:#A8A7AC"/>
			<stop  offset="0.1012" style="stop-color:#FFFFFF"/>
			<stop  offset="0.1795" style="stop-color:#A8A7AC"/>
			<stop  offset="0.7985" style="stop-color:#A8A7AC"/>
			<stop  offset="0.8949" style="stop-color:#FFFFFF"/>
			<stop  offset="0.9771" style="stop-color:#A8A7AC"/>
		</linearGradient>
		<path fill="url(#SVGID_13_)" d="M127.189,83.116L127.189,83.116c-0.043-0.039-0.063-0.062-0.094-0.097v-2.112
			c0.022-0.025,0.051-0.054,0.094-0.095l0,0C127.189,80.95,127.189,83.047,127.189,83.116z"/>
		
			<linearGradient id="SVGID_14_" gradientUnits="userSpaceOnUse" x1="7747.3716" y1="-11019.2148" x2="7747.3716" y2="-11001.293" gradientTransform="matrix(0.0988 0 0 -0.0988 -638.2031 -1001.2538)">
			<stop  offset="0.0216" style="stop-color:#231F20"/>
			<stop  offset="0.1012" style="stop-color:#FFFFFF"/>
			<stop  offset="0.1795" style="stop-color:#010101"/>
			<stop  offset="0.5" style="stop-color:#F1F1F2"/>
			<stop  offset="0.7985" style="stop-color:#010101"/>
			<stop  offset="0.8949" style="stop-color:#FFFFFF"/>
			<stop  offset="0.9771" style="stop-color:#231F20"/>
		</linearGradient>
		<path fill="url(#SVGID_14_)" d="M127.189,85.577L127.189,85.577c-0.043,0.041-0.069,0.069-0.094,0.094v1.582
			c0.03,0.029,0.051,0.052,0.094,0.095h0.19v-1.771H127.189z"/>
		
			<linearGradient id="SVGID_15_" gradientUnits="userSpaceOnUse" x1="7746.4106" y1="-11019.2148" x2="7746.4106" y2="-11001.3008" gradientTransform="matrix(0.0988 0 0 -0.0988 -638.2031 -1001.2538)">
			<stop  offset="0.0216" style="stop-color:#A8A7AC"/>
			<stop  offset="0.1012" style="stop-color:#FFFFFF"/>
			<stop  offset="0.1795" style="stop-color:#A8A7AC"/>
			<stop  offset="0.7985" style="stop-color:#A8A7AC"/>
			<stop  offset="0.8949" style="stop-color:#FFFFFF"/>
			<stop  offset="0.9771" style="stop-color:#A8A7AC"/>
		</linearGradient>
		<path fill="url(#SVGID_15_)" d="M127.189,87.346L127.189,87.346c-0.043-0.043-0.063-0.064-0.094-0.096v-1.58
			c0.022-0.022,0.051-0.053,0.094-0.094l0,0C127.189,85.713,127.189,87.279,127.189,87.346z"/>
		
			<linearGradient id="SVGID_16_" gradientUnits="userSpaceOnUse" x1="7747.3716" y1="-11054.3633" x2="7747.3716" y2="-11036.4492" gradientTransform="matrix(0.0988 0 0 -0.0988 -638.2031 -1001.2538)">
			<stop  offset="0.0216" style="stop-color:#231F20"/>
			<stop  offset="0.1012" style="stop-color:#FFFFFF"/>
			<stop  offset="0.1795" style="stop-color:#010101"/>
			<stop  offset="0.5" style="stop-color:#F1F1F2"/>
			<stop  offset="0.7985" style="stop-color:#010101"/>
			<stop  offset="0.8949" style="stop-color:#FFFFFF"/>
			<stop  offset="0.9771" style="stop-color:#231F20"/>
		</linearGradient>
		<path fill="url(#SVGID_16_)" d="M127.189,89.047L127.189,89.047c-0.043,0.043-0.069,0.07-0.094,0.095v1.582
			c0.03,0.028,0.051,0.053,0.094,0.094h0.19v-1.771H127.189z"/>
		
			<linearGradient id="SVGID_17_" gradientUnits="userSpaceOnUse" x1="7746.4106" y1="-11054.3633" x2="7746.4106" y2="-11036.4414" gradientTransform="matrix(0.0988 0 0 -0.0988 -638.2031 -1001.2538)">
			<stop  offset="0.0216" style="stop-color:#A8A7AC"/>
			<stop  offset="0.1012" style="stop-color:#FFFFFF"/>
			<stop  offset="0.1795" style="stop-color:#A8A7AC"/>
			<stop  offset="0.7985" style="stop-color:#A8A7AC"/>
			<stop  offset="0.8949" style="stop-color:#FFFFFF"/>
			<stop  offset="0.9771" style="stop-color:#A8A7AC"/>
		</linearGradient>
		<path fill="url(#SVGID_17_)" d="M127.189,90.816L127.189,90.816c-0.043-0.041-0.063-0.063-0.094-0.094V89.14
			c0.022-0.022,0.051-0.052,0.094-0.095l0,0C127.189,89.186,127.189,90.75,127.189,90.816z"/>
	</g>
	
		<linearGradient id="SVGID_18_" gradientUnits="userSpaceOnUse" x1="7748.856" y1="-11135.9414" x2="7989.6147" y2="-11135.9414" gradientTransform="matrix(0.0988 0 0 -0.0988 -638.2031 -1001.2538)">
		<stop  offset="0" style="stop-color:#F1F1F2"/>
		<stop  offset="0.1" style="stop-color:#010101"/>
		<stop  offset="0.4873" style="stop-color:#F1F1F2"/>
		<stop  offset="0.9" style="stop-color:#010101"/>
		<stop  offset="1" style="stop-color:#F1F1F2"/>
	</linearGradient>
	<path fill="url(#SVGID_18_)" d="M150.063,74.891c-0.672-0.668-1.561-1.036-2.504-1.036H130.84c-0.945,0-1.838,0.367-2.502,1.036
		c-0.666,0.669-1.033,1.556-1.033,2.501v43.173c0,0.941,0.367,1.834,1.033,2.502c0.664,0.666,1.555,1.033,2.502,1.033h16.719
		c0.939,0,1.832-0.369,2.502-1.033c0.666-0.672,1.031-1.561,1.031-2.502V77.393C151.098,76.447,150.727,75.561,150.063,74.891z"/>
	<g>
		<path fill="#808184" d="M147.559,74.14H130.84c-1.799,0-3.256,1.459-3.256,3.251v43.173c0,1.795,1.461,3.252,3.256,3.252h16.719
			c1.797,0,3.254-1.457,3.254-3.252V77.391C150.813,75.604,149.354,74.14,147.559,74.14z"/>
		<path fill="#FFFFFF" d="M150.717,120.563c0,1.74-1.408,3.158-3.158,3.158H130.84c-1.748,0-3.158-1.418-3.158-3.158V77.391
			c0-1.74,1.41-3.155,3.158-3.155h16.719c1.74,0,3.156,1.415,3.156,3.155v43.173L150.717,120.563L150.717,120.563z"/>
	</g>
	
		<linearGradient id="SVGID_19_" gradientUnits="userSpaceOnUse" x1="7868.4341" y1="-10956.6816" x2="7868.4341" y2="-11319.5176" gradientTransform="matrix(0.0988 0 0 -0.0988 -638.2031 -1001.2538)">
		<stop  offset="0" style="stop-color:#67308F"/>
		<stop  offset="1" style="stop-color:#D91F5D"/>
	</linearGradient>
	<path fill="url(#SVGID_19_)" d="M129.1,81.113h20.195v35.849H129.1V81.113z"/>
	
		<linearGradient id="SVGID_20_" gradientUnits="userSpaceOnUse" x1="7897.5513" y1="-10871.0918" x2="7919.6006" y2="-11021.6025" gradientTransform="matrix(0.0988 0 0 -0.0988 -638.2031 -1001.2538)">
		<stop  offset="0" style="stop-color:#FFFFFF"/>
		<stop  offset="1" style="stop-color:#FFFFFF;stop-opacity:0"/>
	</linearGradient>
	<path opacity="0.1" fill="url(#SVGID_20_)" enable-background="new    " d="M147.559,74.235h-13.285l14.146,49.369
		c1.326-0.373,2.304-1.596,2.304-3.041V77.391C150.717,75.65,149.309,74.235,147.559,74.235z"/>
	<path opacity="0.5" fill="#231F20" enable-background="new    " d="M149.295,81.113v35.849H129.1V81.113H149.295 M149.295,80.954
		H129.1c-0.084,0-0.154,0.069-0.154,0.159v35.849c0,0.088,0.07,0.158,0.154,0.158h20.195c0.092,0,0.16-0.07,0.16-0.158V81.113
		C149.456,81.023,149.387,80.954,149.295,80.954L149.295,80.954z"/>
	<g>
		<rect x="127.305" y="78.202" fill="#F1F1F2" width="0.377" height="0.377"/>
		<rect x="150.717" y="78.202" fill="#F1F1F2" width="0.381" height="0.377"/>
		<rect x="127.305" y="119.415" fill="#F1F1F2" width="0.377" height="0.379"/>
		<rect x="150.717" y="119.415" fill="#F1F1F2" width="0.381" height="0.379"/>
	</g>
	<g>
		<g>
			
				<linearGradient id="SVGID_21_" gradientUnits="userSpaceOnUse" x1="7845.5435" y1="-11351.7813" x2="7890.3013" y2="-11351.7813" gradientTransform="matrix(0.0988 0 0 -0.0988 -638.2031 -1001.2538)">
				<stop  offset="0.0216" style="stop-color:#727074"/>
				<stop  offset="0.1012" style="stop-color:#FFFFFF"/>
				<stop  offset="0.1795" style="stop-color:#727074"/>
				<stop  offset="0.7985" style="stop-color:#727074"/>
				<stop  offset="0.8949" style="stop-color:#FFFFFF"/>
				<stop  offset="0.9771" style="stop-color:#727074"/>
			</linearGradient>
			<path fill="url(#SVGID_21_)" d="M139.068,118.095c-1.223,0-2.215,0.985-2.215,2.206c0,1.222,0.992,2.209,2.215,2.209
				c1.22,0,2.207-0.987,2.207-2.209C141.275,119.081,140.286,118.095,139.068,118.095z M139.064,122.256
				c-1.078,0-1.959-0.875-1.959-1.955c0-1.076,0.881-1.959,1.959-1.959s1.953,0.883,1.953,1.959
				C141.02,121.381,140.146,122.256,139.064,122.256z"/>
		</g>
	</g>
	<g>
		<path fill="#F2F2F2" d="M141.275,78.986c0,0.263-0.211,0.474-0.474,0.474h-3.473c-0.264,0-0.477-0.211-0.477-0.474l0,0
			c0-0.26,0.213-0.473,0.477-0.473h3.473C141.063,78.514,141.275,78.727,141.275,78.986L141.275,78.986z"/>
		<path opacity="0.1" fill="#0F0F10" enable-background="new    " d="M141.275,78.958c0,0.262-0.211,0.474-0.474,0.474h-3.473
			c-0.264,0-0.477-0.212-0.477-0.474l0,0c0-0.263,0.213-0.474,0.477-0.474h3.473C141.063,78.484,141.275,78.695,141.275,78.958
			L141.275,78.958z"/>
		
			<linearGradient id="SVGID_22_" gradientUnits="userSpaceOnUse" x1="7850.8286" y1="-10935.957" x2="7873.085" y2="-10938.085" gradientTransform="matrix(0.0988 0 0 -0.0988 -638.2031 -1001.2538)">
			<stop  offset="0" style="stop-color:#FFFFFF"/>
			<stop  offset="1" style="stop-color:#000000;stop-opacity:0"/>
		</linearGradient>
		<path opacity="0.2" fill="url(#SVGID_22_)" enable-background="new    " d="M137.223,79.318c-0.027,0.021-0.057,0.041-0.092,0.067
			c0.063,0.033,0.131,0.046,0.199,0.046h2.955c-0.023-0.011-0.05-0.024-0.072-0.031c-0.133-0.063-0.258-0.127-0.396-0.168
			c-0.021-0.01-0.039-0.015-0.051-0.019h-2.354C137.342,79.241,137.284,79.273,137.223,79.318z"/>
		
			<linearGradient id="SVGID_23_" gradientUnits="userSpaceOnUse" x1="7884.5747" y1="-10936.7422" x2="7888.6035" y2="-10936.7422" gradientTransform="matrix(0.0988 0 0 -0.0988 -638.2031 -1001.2538)">
			<stop  offset="0" style="stop-color:#000000;stop-opacity:0"/>
			<stop  offset="1" style="stop-color:#FFFFFF"/>
		</linearGradient>
		<path opacity="0.2" fill="url(#SVGID_23_)" enable-background="new    " d="M141.045,79.258c-0.008-0.012-0.051-0.055-0.098-0.096
			c-0.044,0.028-0.095,0.049-0.146,0.049h-0.09c0.004,0.072,0.027,0.146,0.054,0.22h0.036c0.117,0,0.224-0.046,0.306-0.115
			C141.086,79.295,141.064,79.279,141.045,79.258z"/>
		<path fill="#010101" d="M140.805,78.704h-3.475c-0.138,0-0.252,0.114-0.252,0.254s0.114,0.254,0.252,0.254h0.082h2.35h0.951h0.092
			c0.051,0,0.102-0.021,0.145-0.049c0.063-0.047,0.109-0.123,0.109-0.205C141.059,78.818,140.941,78.704,140.805,78.704z"/>
	</g>
	<g>
		<path opacity="0.2" fill="#FFFFFF" enable-background="new    " d="M139.068,76.336c0.242,0,0.445,0.203,0.445,0.449
			c0,0.248-0.203,0.447-0.445,0.447c-0.25,0-0.448-0.199-0.448-0.447C138.62,76.54,138.818,76.336,139.068,76.336z"/>
		
			<linearGradient id="SVGID_24_" gradientUnits="userSpaceOnUse" x1="7867.1021" y1="-10907.6055" x2="7867.1021" y2="-10916.4072" gradientTransform="matrix(0.0988 0 0 -0.0988 -638.2031 -1001.2538)">
			<stop  offset="0" style="stop-color:#010101"/>
			<stop  offset="1" style="stop-color:#231F20"/>
		</linearGradient>
		<path fill="url(#SVGID_24_)" d="M139.068,76.313c0.242,0,0.445,0.201,0.445,0.445c0,0.248-0.203,0.447-0.445,0.447
			c-0.25,0-0.448-0.199-0.448-0.447C138.62,76.513,138.818,76.313,139.068,76.313z"/>
		<path fill="#2BACE2" d="M139.068,76.568c0.103,0,0.19,0.085,0.19,0.19c0,0.107-0.09,0.191-0.19,0.191
			c-0.108,0-0.19-0.084-0.19-0.191C138.877,76.654,138.959,76.568,139.068,76.568z"/>
		
			<linearGradient id="SVGID_25_" gradientUnits="userSpaceOnUse" x1="7866.5493" y1="-10911.0586" x2="7869.2646" y2="-10911.0586" gradientTransform="matrix(0.0988 0 0 -0.0988 -638.2031 -1001.2538)">
			<stop  offset="0" style="stop-color:#2075BC"/>
			<stop  offset="1" style="stop-color:#922A8E"/>
		</linearGradient>
		<path fill="url(#SVGID_25_)" d="M139.068,76.625c0.07,0,0.13,0.063,0.13,0.133c0,0.072-0.06,0.135-0.13,0.135
			c-0.073,0-0.137-0.063-0.137-0.135C138.932,76.687,138.995,76.625,139.068,76.625z"/>
		<path fill="#FFFFFF" d="M139.068,76.661c0.027,0,0.056,0.016,0.056,0.035c0,0.021-0.025,0.039-0.056,0.039
			c-0.034,0-0.062-0.018-0.062-0.039C139.008,76.676,139.034,76.661,139.068,76.661z"/>
	</g>
	<path opacity="0.5" fill="#0F0F10" enable-background="new    " d="M135.713,78.674c0.156,0,0.283,0.125,0.283,0.283
		s-0.127,0.283-0.283,0.283c-0.158,0-0.289-0.125-0.289-0.283S135.555,78.674,135.713,78.674z"/>
</g>
</svg>
