<?xml version="1.0" encoding="utf-8"?>
<!-- Generator: Adobe Illustrator 16.0.0, SVG Export Plug-In . SVG Version: 6.00 Build 0)  -->
<!DOCTYPE svg PUBLIC "-//W3C//DTD SVG 1.1//EN" "http://www.w3.org/Graphics/SVG/1.1/DTD/svg11.dtd">
<svg version="1.1" id="Layer_1" xmlns="http://www.w3.org/2000/svg" xmlns:xlink="http://www.w3.org/1999/xlink" x="0px" y="0px"
	 width="158px" height="158px" viewBox="0 0 158 158" enable-background="new 0 0 158 158" xml:space="preserve">
<g id="solid" xmlns:dc="http://purl.org/dc/elements/1.1/" xmlns:cc="http://creativecommons.org/ns#" xmlns:rdf="http://www.w3.org/1999/02/22-rdf-syntax-ns#" xmlns:svg="http://www.w3.org/2000/svg" xmlns:sodipodi="http://sodipodi.sourceforge.net/DTD/sodipodi-0.dtd" xmlns:inkscape="http://www.inkscape.org/namespaces/inkscape" sodipodi:docname="twitter_bootstrap_logo.svg" inkscape:version="0.48.1 r9760">
	<path id="bg" fill="#563D7C" d="M141.5,120.677c0,11.455-9.368,20.823-20.823,20.823H37.339c-11.47,0-20.839-9.368-20.839-20.823
		V37.339c0-11.47,9.369-20.839,20.839-20.839h83.338c11.455,0,20.823,9.369,20.823,20.839V120.677z"/>
	<g id="B" enable-background="new    ">
		<path fill="#FFFFFF" d="M50.466,43.666h35.431c6.546,0,11.795,1.49,15.746,4.488c3.919,3.005,5.907,7.519,5.907,13.591
			c0,3.674-0.901,6.818-2.699,9.43c-1.788,2.611-4.363,4.662-7.724,6.085v0.207c4.516,0.956,7.924,3.077,10.229,6.364
			c2.306,3.312,3.454,7.438,3.454,12.441c0,2.841-0.5,5.514-1.517,7.993c-1.033,2.506-2.628,4.636-4.811,6.425
			c-2.183,1.819-4.952,3.24-8.361,4.294c-3.409,1.064-7.458,1.595-12.171,1.595H50.466V43.666L50.466,43.666z M63.227,74.206h20.84
			c3.052,0,5.615-0.859,7.666-2.622c2.034-1.759,3.067-4.249,3.067-7.509c0-3.681-0.937-6.282-2.777-7.764
			c-1.84-1.498-4.487-2.245-7.956-2.245h-20.84V74.206L63.227,74.206z M63.227,106.161h22.566c3.889,0,6.921-0.985,9.025-3.026
			c2.163-1.981,3.242-4.855,3.242-8.535c0-3.604-1.055-6.379-3.242-8.336c-2.156-1.953-5.137-2.898-9.025-2.898H63.227V106.161z"/>
	</g>
</g>
</svg>
