<?xml version="1.0" encoding="utf-8"?>
<!-- Generator: Adobe Illustrator 16.0.0, SVG Export Plug-In . SVG Version: 6.00 Build 0)  -->
<!DOCTYPE svg PUBLIC "-//W3C//DTD SVG 1.1//EN" "http://www.w3.org/Graphics/SVG/1.1/DTD/svg11.dtd">
<svg version="1.1" id="Layer_1" xmlns="http://www.w3.org/2000/svg" xmlns:xlink="http://www.w3.org/1999/xlink" x="0px" y="0px"
	 width="97.272px" height="66.57px" viewBox="28.789 46.595 97.272 66.57" enable-background="new 28.789 46.595 97.272 66.57"
	 xml:space="preserve">
<path fill="#FB503B" d="M125.678,77.691c-0.654-0.722-9.548-11.873-11.128-13.769c-1.579-1.896-2.325-1.558-3.296-1.399
	c-0.97,0.158-12.232,2.031-13.542,2.257c-1.31,0.226-2.122,0.745-1.332,1.874c0.723,0.993,8.126,11.512,9.751,13.813l-29.456,7.065
	L53.291,48.371c-0.925-1.377-1.128-1.874-3.25-1.761c-2.122,0.09-18.373,1.445-19.524,1.535s-2.438,0.609-1.264,3.34
	c1.151,2.731,19.615,42.502,20.134,43.653c0.519,1.15,1.851,3.024,4.988,2.279c3.205-0.768,14.333-3.679,20.405-5.259
	c3.205,5.823,9.773,17.605,10.97,19.298c1.625,2.258,2.731,1.874,5.214,1.129c1.941-0.586,30.336-10.789,31.623-11.33
	c1.286-0.52,2.076-0.903,1.195-2.189c-0.631-0.948-8.125-10.971-12.053-16.229c2.686-0.722,12.234-3.25,13.271-3.543
	C126.174,79,126.332,78.413,125.678,77.691z M72.138,88.639c-0.361,0.066-16.838,4.018-17.718,4.221
	c-0.88,0.203-0.88,0.09-0.971-0.203c-0.09-0.294-19.615-40.539-19.886-41.035c-0.271-0.497-0.248-0.903,0-0.903
	c0.249,0,15.575-1.376,16.116-1.399c0.542-0.022,0.474,0.09,0.677,0.429c0,0,21.601,37.288,21.984,37.942
	C72.725,88.367,72.5,88.57,72.138,88.639z M118.658,97.351c0.271,0.406,0.52,0.677-0.293,0.971
	c-0.836,0.294-27.922,9.435-28.44,9.66c-0.52,0.226-0.948,0.294-1.626-0.677c-0.677-0.971-9.479-16.229-9.479-16.229l28.711-7.472
	c0.722-0.226,0.948-0.384,1.399,0.339S118.387,96.944,118.658,97.351z M120.486,76.969c-0.654,0.135-11.195,2.754-11.195,2.754
	l-8.623-11.828c-0.248-0.339-0.451-0.677,0.158-0.768s10.406-1.851,10.834-1.941c0.452-0.09,0.836-0.226,1.377,0.519
	c0.543,0.745,7.99,10.18,8.284,10.541C121.615,76.607,121.141,76.833,120.486,76.969z"/>
</svg>
