<?xml version="1.0" encoding="utf-8"?>
<!-- Generator: Adobe Illustrator 16.0.0, SVG Export Plug-In . SVG Version: 6.00 Build 0)  -->
<!DOCTYPE svg PUBLIC "-//W3C//DTD SVG 1.1//EN" "http://www.w3.org/Graphics/SVG/1.1/DTD/svg11.dtd">
<svg version="1.1" id="Layer_1" xmlns="http://www.w3.org/2000/svg" xmlns:xlink="http://www.w3.org/1999/xlink" x="0px" y="0px"
	 width="455px" height="275px" viewBox="70.5 160.5 455 275" enable-background="new 70.5 160.5 455 275" xml:space="preserve">
<g>
	<g>
		<defs>
			<rect id="SVGID_1_" width="600" height="600"/>
		</defs>
		<clipPath id="SVGID_2_">
			<use xlink:href="#SVGID_1_"  overflow="visible"/>
		</clipPath>
		<path clip-path="url(#SVGID_2_)" fill="#699F63" d="M296.953,434.944c-1.46,0-2.912-0.382-4.19-1.121l-13.338-7.893
			c-1.991-1.113-1.019-1.509-0.362-1.737c2.657-0.922,3.195-1.136,6.031-2.743c0.295-0.167,0.688-0.104,0.992,0.076l10.247,6.083
			c0.371,0.206,0.895,0.206,1.237,0l39.95-23.059c0.372-0.212,0.609-0.641,0.609-1.081v-46.104c0-0.451-0.237-0.872-0.62-1.101
			l-39.933-23.039c-0.369-0.216-0.859-0.216-1.231,0l-39.923,23.045c-0.388,0.223-0.634,0.658-0.634,1.095v46.104
			c0,0.44,0.246,0.858,0.63,1.067l10.944,6.323c5.938,2.969,9.574-0.528,9.574-4.041V361.3c0-0.646,0.517-1.151,1.161-1.151h5.065
			c0.634,0,1.158,0.508,1.158,1.151v45.52c0,7.925-4.316,12.47-11.829,12.47c-2.309,0-4.127,0-9.202-2.501l-10.476-6.03
			c-2.588-1.496-4.19-4.293-4.19-7.288v-46.104c0-2.995,1.602-5.792,4.19-7.281L292.763,327c2.528-1.43,5.888-1.43,8.396,0
			l39.947,23.085c2.587,1.496,4.194,4.286,4.194,7.281v46.104c0,2.995-1.607,5.781-4.194,7.288l-39.947,23.064
			C299.882,434.563,298.433,434.944,296.953,434.944"/>
	</g>
	<g>
		<defs>
			<rect id="SVGID_3_" width="600" height="600"/>
		</defs>
		<clipPath id="SVGID_4_">
			<use xlink:href="#SVGID_3_"  overflow="visible"/>
		</clipPath>
		<path clip-path="url(#SVGID_4_)" fill="#699F63" d="M309.293,403.182c-17.481,0-21.144-8.023-21.144-14.755
			c0-0.641,0.514-1.151,1.154-1.151h5.165c0.577,0,1.058,0.416,1.148,0.979c0.78,5.259,3.105,7.912,13.677,7.912
			c8.416,0,11.999-1.903,11.999-6.369c0-2.573-1.016-4.485-14.095-5.767c-10.931-1.081-17.692-3.496-17.692-12.239
			c0-8.062,6.794-12.868,18.187-12.868c12.798,0,19.131,4.441,19.933,13.973c0.03,0.328-0.086,0.645-0.305,0.889
			c-0.22,0.229-0.524,0.369-0.847,0.369h-5.186c-0.537,0-1.012-0.383-1.121-0.902c-1.243-5.533-4.269-7.302-12.476-7.302
			c-9.189,0-10.257,3.2-10.257,5.601c0,2.906,1.26,3.751,13.667,5.393c12.276,1.623,18.108,3.922,18.108,12.551
			C329.21,398.195,321.952,403.182,309.293,403.182"/>
	</g>
	<g>
		<defs>
			<rect id="SVGID_5_" width="600" height="600"/>
		</defs>
		<clipPath id="SVGID_6_">
			<use xlink:href="#SVGID_5_"  overflow="visible"/>
		</clipPath>
		<path clip-path="url(#SVGID_6_)" fill="#699F63" d="M366.898,354.831c0,4.235-3.465,7.698-7.698,7.698
			c-4.197,0-7.7-3.422-7.7-7.698c0-4.358,3.586-7.701,7.7-7.701C363.355,347.13,366.898,350.473,366.898,354.831 M352.744,354.811
			c0,3.586,2.893,6.479,6.436,6.479c3.586,0,6.479-2.954,6.479-6.479c0-3.586-2.934-6.438-6.479-6.438
			C355.677,348.373,352.744,351.184,352.744,354.811 M356.307,350.511h2.977c1.019,0,3.016,0,3.016,2.283
			c0,1.589-1.019,1.914-1.632,2.118c1.184,0.081,1.264,0.855,1.426,1.955c0.083,0.691,0.206,1.875,0.448,2.281h-1.831
			c-0.043-0.406-0.329-2.607-0.329-2.729c-0.119-0.489-0.285-0.731-0.896-0.731h-1.507v3.461h-1.672V350.511z M357.938,354.3h1.345
			c1.098,0,1.304-0.772,1.304-1.221c0-1.183-0.816-1.183-1.264-1.183h-1.385V354.3L357.938,354.3z"/>
	</g>
	<g>
		<defs>
			<rect id="SVGID_7_" width="600" height="600"/>
		</defs>
		<clipPath id="SVGID_8_">
			<use xlink:href="#SVGID_7_"  overflow="visible"/>
		</clipPath>
		<path clip-path="url(#SVGID_8_)" fill="#333333" d="M173.243,254.567c0-1.841-0.969-3.533-2.558-4.445l-42.355-24.375
			c-0.716-0.422-1.519-0.641-2.331-0.674h-0.438c-0.81,0.033-1.612,0.252-2.339,0.674l-42.355,24.375
			c-1.579,0.912-2.561,2.604-2.561,4.445l0.093,65.635c0,0.913,0.474,1.762,1.277,2.21c0.786,0.471,1.758,0.471,2.541,0
			l25.172-14.414c1.592-0.945,2.561-2.614,2.561-4.438v-30.666c0-1.828,0.968-3.52,2.554-4.429l10.718-6.173
			c0.799-0.461,1.672-0.687,2.564-0.687c0.873,0,1.768,0.226,2.544,0.687l10.715,6.173c1.586,0.909,2.558,2.601,2.558,4.429v30.666
			c0,1.823,0.982,3.504,2.564,4.438l25.165,14.414c0.789,0.471,1.775,0.471,2.557,0c0.78-0.448,1.271-1.297,1.271-2.21
			L173.243,254.567z"/>
	</g>
	<g>
		<defs>
			<rect id="SVGID_9_" width="600" height="600"/>
		</defs>
		<clipPath id="SVGID_10_">
			<use xlink:href="#SVGID_9_"  overflow="visible"/>
		</clipPath>
		<path clip-path="url(#SVGID_10_)" fill="#333333" d="M377.04,164.34c-0.793-0.44-1.76-0.431-2.543,0.029
			c-0.78,0.459-1.262,1.299-1.262,2.206v65c0,0.639-0.343,1.231-0.895,1.551c-0.555,0.32-1.237,0.32-1.791,0l-10.608-6.112
			c-1.582-0.913-3.529-0.911-5.112,0.001l-42.371,24.453c-1.584,0.914-2.559,2.603-2.559,4.431v48.917
			c0,1.828,0.975,3.516,2.557,4.432l42.37,24.471c1.584,0.914,3.534,0.914,5.118,0l42.377-24.471
			c1.582-0.916,2.558-2.604,2.558-4.432V182.879c0-1.854-1.004-3.564-2.624-4.468L377.04,164.34z M373.109,288.743
			c0,0.456-0.244,0.879-0.641,1.106l-14.549,8.386c-0.395,0.227-0.882,0.227-1.276,0l-14.548-8.386
			c-0.396-0.227-0.641-0.65-0.641-1.106v-16.799c0-0.456,0.243-0.879,0.64-1.108l14.547-8.402c0.396-0.229,0.885-0.229,1.28,0
			l14.548,8.402c0.396,0.229,0.64,0.652,0.64,1.108V288.743z"/>
	</g>
	<g>
		<defs>
			<rect id="SVGID_11_" width="600" height="600"/>
		</defs>
		<clipPath id="SVGID_12_">
			<use xlink:href="#SVGID_11_"  overflow="visible"/>
		</clipPath>
		<path clip-path="url(#SVGID_12_)" fill="#333333" d="M518.131,271.505c1.576-0.915,2.546-2.601,2.546-4.424v-11.854
			c0-1.823-0.97-3.51-2.548-4.425l-42.099-24.443c-1.584-0.921-3.539-0.922-5.127-0.007l-42.356,24.453
			c-1.583,0.914-2.558,2.602-2.558,4.43v48.904c0,1.84,0.985,3.536,2.584,4.445l42.093,23.984c1.552,0.887,3.455,0.896,5.017,0.027
			l25.46-14.15c0.81-0.449,1.313-1.297,1.316-2.219c0.006-0.924-0.485-1.776-1.284-2.235l-42.625-24.465
			c-0.796-0.456-1.286-1.304-1.286-2.219v-15.326c0-0.914,0.488-1.76,1.281-2.216l13.266-7.648c0.789-0.456,1.766-0.456,2.556,0
			l13.271,7.648c0.793,0.456,1.28,1.302,1.28,2.216v12.058c0,0.916,0.49,1.762,1.283,2.218c0.793,0.458,1.77,0.454,2.561-0.005
			L518.131,271.505z"/>
	</g>
	<g>
		<defs>
			<rect id="SVGID_13_" width="600" height="600"/>
		</defs>
		<clipPath id="SVGID_14_">
			<use xlink:href="#SVGID_13_"  overflow="visible"/>
		</clipPath>
		<path clip-path="url(#SVGID_14_)" fill="#699F63" d="M472.842,269.214c0.306-0.176,0.68-0.176,0.982,0l8.13,4.69
			c0.304,0.176,0.491,0.5,0.491,0.851v9.388c0,0.352-0.188,0.675-0.491,0.851l-8.13,4.691c-0.305,0.176-0.678,0.176-0.982,0
			l-8.124-4.691c-0.304-0.176-0.489-0.499-0.489-0.851v-9.388c0-0.351,0.187-0.675,0.489-0.851L472.842,269.214z"/>
	</g>
</g>
<g>
	<g>
		<defs>
			<path id="SVGID_15_" d="M239.032,226.607l-42.134,24.315c-1.576,0.909-2.545,2.588-2.545,4.407v48.666
				c0,1.817,0.969,3.497,2.544,4.407l42.133,24.334c1.576,0.91,3.516,0.91,5.091,0l42.124-24.334c1.574-0.91,2.543-2.59,2.543-4.407
				v-48.668c0-1.817-0.969-3.496-2.545-4.405l-42.123-24.315c-0.787-0.454-1.666-0.682-2.544-0.682
				C240.697,225.925,239.819,226.153,239.032,226.607"/>
		</defs>
		<clipPath id="SVGID_16_">
			<use xlink:href="#SVGID_15_"  overflow="visible"/>
		</clipPath>
		
			<linearGradient id="SVGID_17_" gradientUnits="userSpaceOnUse" x1="222.4639" y1="-221.043" x2="223.4639" y2="-221.043" gradientTransform="matrix(-38.0649 77.6524 -77.6524 -38.0649 -8437.7891 -25444.127)">
			<stop  offset="0" style="stop-color:#41873F"/>
			<stop  offset="0.3288" style="stop-color:#418B3D"/>
			<stop  offset="0.6352" style="stop-color:#419637"/>
			<stop  offset="0.9319" style="stop-color:#3FA92D"/>
			<stop  offset="1" style="stop-color:#3FAE2A"/>
		</linearGradient>
		<polygon clip-path="url(#SVGID_16_)" fill="url(#SVGID_17_)" points="331.362,246.795 270.492,370.969 151.779,312.775 
			212.648,188.602 		"/>
	</g>
</g>
<g>
	<g>
		<defs>
			<path id="SVGID_18_" d="M195.4,307.086c0.401,0.525,0.906,0.975,1.497,1.316l36.143,20.875l6.017,3.459
				c0.9,0.52,1.927,0.738,2.936,0.666c0.337-0.028,0.673-0.09,1.001-0.187l44.43-81.357c-0.34-0.365-0.736-0.682-1.181-0.938
				l-27.588-15.925l-14.579-8.39c-0.417-0.24-0.864-0.413-1.323-0.526L195.4,307.086z"/>
		</defs>
		<clipPath id="SVGID_19_">
			<use xlink:href="#SVGID_18_"  overflow="visible"/>
		</clipPath>
		
			<linearGradient id="SVGID_20_" gradientUnits="userSpaceOnUse" x1="221.106" y1="-219.9023" x2="222.106" y2="-219.9023" gradientTransform="matrix(106.8073 -78.9149 78.9149 106.8073 -6027.3984 41220.5)">
			<stop  offset="0" style="stop-color:#41873F"/>
			<stop  offset="0.1376" style="stop-color:#41873F"/>
			<stop  offset="0.4032" style="stop-color:#54A044"/>
			<stop  offset="0.7136" style="stop-color:#66B848"/>
			<stop  offset="0.9081" style="stop-color:#6CC04A"/>
			<stop  offset="1" style="stop-color:#6CC04A"/>
		</linearGradient>
		<polygon clip-path="url(#SVGID_19_)" fill="url(#SVGID_20_)" points="144.071,264.005 254.928,182.099 338.753,295.552 
			227.896,377.458 		"/>
	</g>
</g>
<g>
	<g>
		<defs>
			<path id="SVGID_21_" d="M239.032,226.607l-42.134,24.315c-1.575,0.909-2.545,2.588-2.545,4.407v48.666
				c0,1.817,0.97,3.497,2.544,4.407l42.133,24.334c1.576,0.91,3.516,0.91,5.091,0l42.124-24.334c1.574-0.91,2.543-2.59,2.543-4.407
				v-48.668c0-1.817-0.969-3.496-2.545-4.405l-42.123-24.315c-0.787-0.454-1.666-0.682-2.544-0.682
				C240.697,225.925,239.819,226.153,239.032,226.607"/>
		</defs>
		<clipPath id="SVGID_22_">
			<use xlink:href="#SVGID_21_"  overflow="visible"/>
		</clipPath>
		<g clip-path="url(#SVGID_22_)">
			<g>
				<defs>
					<polygon id="SVGID_23_" points="237.627,217.669 237.047,218 237.821,218 					"/>
				</defs>
				<clipPath id="SVGID_24_">
					<use xlink:href="#SVGID_23_"  overflow="visible"/>
				</clipPath>
				
					<linearGradient id="SVGID_25_" gradientUnits="userSpaceOnUse" x1="221.5566" y1="-219.5195" x2="222.5566" y2="-219.5195" gradientTransform="matrix(97.417 0 0 97.417 -21390.4902 21602.75)">
					<stop  offset="0" style="stop-color:#6CC04A"/>
					<stop  offset="0.0919" style="stop-color:#6CC04A"/>
					<stop  offset="0.2864" style="stop-color:#66B848"/>
					<stop  offset="0.5968" style="stop-color:#54A044"/>
					<stop  offset="0.8624" style="stop-color:#41873F"/>
					<stop  offset="1" style="stop-color:#41873F"/>
				</linearGradient>
				<rect x="237.047" y="217.669" clip-path="url(#SVGID_24_)" fill="url(#SVGID_25_)" width="0.774" height="0.331"/>
			</g>
		</g>
		<g clip-path="url(#SVGID_22_)">
			<g>
				<defs>
					<path id="SVGID_26_" d="M241.065,225.952c-0.705,0.07-1.398,0.289-2.033,0.655l-42.014,24.245l45.293,82.513
						c0.628-0.092,1.243-0.301,1.81-0.629l42.124-24.334c1.301-0.752,2.189-2.03,2.458-3.478l-46.178-78.89
						c-0.341-0.068-0.688-0.102-1.035-0.102C241.348,225.934,241.206,225.94,241.065,225.952"/>
				</defs>
				<clipPath id="SVGID_27_">
					<use xlink:href="#SVGID_26_"  overflow="visible"/>
				</clipPath>
				
					<linearGradient id="SVGID_28_" gradientUnits="userSpaceOnUse" x1="221.5566" y1="-219.5195" x2="222.5566" y2="-219.5195" gradientTransform="matrix(97.417 0 0 97.417 -21390.4902 21664.5625)">
					<stop  offset="0" style="stop-color:#6CC04A"/>
					<stop  offset="0.0919" style="stop-color:#6CC04A"/>
					<stop  offset="0.2864" style="stop-color:#66B848"/>
					<stop  offset="0.5968" style="stop-color:#54A044"/>
					<stop  offset="0.8624" style="stop-color:#41873F"/>
					<stop  offset="1" style="stop-color:#41873F"/>
				</linearGradient>
				<rect x="197.018" y="225.934" clip-path="url(#SVGID_27_)" fill="url(#SVGID_28_)" width="91.685" height="107.431"/>
			</g>
		</g>
		<g clip-path="url(#SVGID_22_)">
			<g>
				<defs>
					<path id="SVGID_29_" d="M239.032,226.607l-42.134,24.315c-1.575,0.909-2.545,2.588-2.545,4.407v48.666
						c0,1.817,0.97,3.497,2.544,4.407l42.133,24.334c1.576,0.91,3.516,0.91,5.091,0l42.124-24.334
						c1.574-0.91,2.543-2.59,2.543-4.407v-48.668c0-1.817-0.969-3.496-2.545-4.405l-42.123-24.315
						c-0.787-0.454-1.666-0.682-2.544-0.682C240.697,225.925,239.819,226.153,239.032,226.607"/>
				</defs>
				<clipPath id="SVGID_30_">
					<use xlink:href="#SVGID_29_"  overflow="visible"/>
				</clipPath>
				<g clip-path="url(#SVGID_30_)">
					<g>
						<defs>
							<polygon id="SVGID_31_" points="290.279,307.62 290,307.143 290,307.782 							"/>
						</defs>
						<clipPath id="SVGID_32_">
							<use xlink:href="#SVGID_31_"  overflow="visible"/>
						</clipPath>
						
							<linearGradient id="SVGID_33_" gradientUnits="userSpaceOnUse" x1="221.5566" y1="-219.5195" x2="222.5566" y2="-219.5195" gradientTransform="matrix(97.417 0 0 97.417 -21390.4902 21692.375)">
							<stop  offset="0" style="stop-color:#6CC04A"/>
							<stop  offset="0.0919" style="stop-color:#6CC04A"/>
							<stop  offset="0.2864" style="stop-color:#66B848"/>
							<stop  offset="0.5968" style="stop-color:#54A044"/>
							<stop  offset="0.8624" style="stop-color:#41873F"/>
							<stop  offset="1" style="stop-color:#41873F"/>
						</linearGradient>
						<rect x="290" y="307.143" clip-path="url(#SVGID_32_)" fill="url(#SVGID_33_)" width="0.279" height="0.641"/>
					</g>
				</g>
				<g clip-path="url(#SVGID_30_)">
					<g>
						<defs>
							<path id="SVGID_34_" d="M239.032,226.607l-42.134,24.315c-1.575,0.909-2.545,2.588-2.545,4.407v48.666
								c0,1.817,0.97,3.497,2.544,4.407l42.133,24.334c1.576,0.91,3.516,0.91,5.091,0l42.124-24.334
								c1.574-0.91,2.543-2.59,2.543-4.407v-48.668c0-1.817-0.969-3.496-2.545-4.405l-42.123-24.315
								c-0.787-0.454-1.666-0.682-2.544-0.682C240.697,225.925,239.819,226.153,239.032,226.607"/>
						</defs>
						<clipPath id="SVGID_35_">
							<use xlink:href="#SVGID_34_"  overflow="visible"/>
						</clipPath>
						<g clip-path="url(#SVGID_35_)">
							<g>
								<defs>
									<path id="SVGID_36_" d="M286.351,308.402l-42.177,24.334c-0.58,0.334-1.213,0.545-1.861,0.633l0.84,1.529L290,307.782
										v-0.64l-1.158-1.979C288.495,306.512,287.579,307.691,286.351,308.402"/>
								</defs>
								<clipPath id="SVGID_37_">
									<use xlink:href="#SVGID_36_"  overflow="visible"/>
								</clipPath>
								
									<linearGradient id="SVGID_38_" gradientUnits="userSpaceOnUse" x1="221.5557" y1="-219.5205" x2="222.5567" y2="-219.5205" gradientTransform="matrix(97.417 0 0 97.417 -21390.4902 21705)">
									<stop  offset="0" style="stop-color:#6CC04A"/>
									<stop  offset="0.0919" style="stop-color:#6CC04A"/>
									<stop  offset="0.2864" style="stop-color:#66B848"/>
									<stop  offset="0.5968" style="stop-color:#54A044"/>
									<stop  offset="0.8624" style="stop-color:#41873F"/>
									<stop  offset="1" style="stop-color:#41873F"/>
								</linearGradient>
								<rect x="242.313" y="305.164" clip-path="url(#SVGID_37_)" fill="url(#SVGID_38_)" width="47.687" height="29.734"/>
							</g>
						</g>
						<g clip-path="url(#SVGID_35_)">
							<g>
								<defs>
									<path id="SVGID_39_" d="M239.032,226.607l-42.134,24.315c-1.575,0.909-2.545,2.588-2.545,4.407v48.666
										c0,1.817,0.97,3.497,2.544,4.407l42.133,24.334c1.576,0.91,3.516,0.91,5.091,0l42.124-24.334
										c1.574-0.91,2.543-2.59,2.543-4.407v-48.668c0-1.817-0.969-3.496-2.545-4.405l-42.123-24.315
										c-0.787-0.454-1.666-0.682-2.544-0.682C240.697,225.925,239.819,226.153,239.032,226.607"/>
								</defs>
								<clipPath id="SVGID_40_">
									<use xlink:href="#SVGID_39_"  overflow="visible"/>
								</clipPath>
								<g clip-path="url(#SVGID_40_)">
									<g>
										<defs>
											<path id="SVGID_41_" d="M286.351,308.402l-42.177,24.334c-0.58,0.334-1.213,0.545-1.861,0.633l0.84,1.529L290,307.782
												v-0.64l-1.158-1.979C288.495,306.512,287.579,307.691,286.351,308.402"/>
										</defs>
										<clipPath id="SVGID_42_">
											<use xlink:href="#SVGID_41_"  overflow="visible"/>
										</clipPath>
										
											<linearGradient id="SVGID_43_" gradientUnits="userSpaceOnUse" x1="222.1113" y1="-220.8428" x2="223.1099" y2="-220.8428" gradientTransform="matrix(-60.0806 122.5644 -122.5644 -60.0806 -13418.5781 -40248.8945)">
											<stop  offset="0" style="stop-color:#41873F"/>
											<stop  offset="0.3288" style="stop-color:#418B3D"/>
											<stop  offset="0.6352" style="stop-color:#419637"/>
											<stop  offset="0.9319" style="stop-color:#3FA92D"/>
											<stop  offset="1" style="stop-color:#3FAE2A"/>
										</linearGradient>
										<polygon clip-path="url(#SVGID_42_)" fill="url(#SVGID_43_)" points="301.752,310.925 280.761,353.746 230.561,329.139 
											251.552,286.317 										"/>
									</g>
								</g>
							</g>
						</g>
					</g>
				</g>
			</g>
		</g>
	</g>
</g>
</svg>
