<?xml version="1.0" encoding="utf-8"?>
<!-- Generator: Adobe Illustrator 16.0.0, SVG Export Plug-In . SVG Version: 6.00 Build 0)  -->
<!DOCTYPE svg PUBLIC "-//W3C//DTD SVG 1.1//EN" "http://www.w3.org/Graphics/SVG/1.1/DTD/svg11.dtd">
<svg version="1.1" id="Layer_1" xmlns="http://www.w3.org/2000/svg" xmlns:xlink="http://www.w3.org/1999/xlink" x="0px" y="0px"
	 width="157.909px" height="118.422px" viewBox="-0.008 19.778 157.909 118.422"
	 enable-background="new -0.008 19.778 157.909 118.422" xml:space="preserve">
<path fill="#CD6799" d="M135.965,87.854c-5.51,0.028-10.297,1.356-14.307,3.317c-1.471-2.914-2.941-5.51-3.201-7.413
	c-0.289-2.221-0.635-3.576-0.289-6.23c0.347-2.653,1.904-6.432,1.875-6.72c-0.029-0.288-0.346-1.644-3.519-1.673
	s-5.913,0.606-6.229,1.442c-0.318,0.836-0.924,2.74-1.328,4.701c-0.547,2.884-6.345,13.182-9.662,18.574
	c-1.066-2.105-1.99-3.951-2.191-5.422c-0.289-2.221-0.635-3.576-0.289-6.23c0.347-2.653,1.904-6.432,1.875-6.72
	c-0.028-0.288-0.346-1.644-3.519-1.673s-5.913,0.606-6.229,1.442c-0.318,0.836-0.664,2.798-1.327,4.701
	c-0.663,1.904-8.364,19.094-10.383,23.536c-1.039,2.278-1.933,4.096-2.567,5.336l0,0c0,0-0.029,0.087-0.116,0.231
	c-0.548,1.066-0.865,1.644-0.865,1.644s0,0,0,0.028c-0.433,0.779-0.894,1.5-1.125,1.5c-0.173,0-0.49-2.076,0.058-4.903
	c1.153-5.97,3.894-15.257,3.865-15.575c0-0.173,0.519-1.788-1.788-2.625c-2.25-0.836-3.058,0.549-3.259,0.549
	c-0.202,0-0.346,0.49-0.346,0.49s2.509-10.441-4.788-10.441c-4.557,0-10.845,4.99-13.959,9.49
	c-1.961,1.066-6.144,3.346-10.614,5.797c-1.702,0.951-3.461,1.903-5.105,2.797c-0.116-0.115-0.231-0.259-0.346-0.374
	c-8.826-9.432-25.151-16.095-24.458-28.756c0.259-4.615,1.846-16.729,31.352-31.438c24.286-11.97,43.61-8.653,46.956-1.298
	c4.788,10.499-10.354,29.996-35.447,32.823c-9.576,1.067-14.594-2.625-15.863-4.009c-1.327-1.442-1.529-1.529-2.019-1.24
	c-0.808,0.433-0.289,1.73,0,2.48c0.75,1.961,3.836,5.422,9.057,7.124c4.615,1.5,15.834,2.336,29.419-2.913
	c15.2-5.884,27.083-22.238,23.594-35.938c-3.49-13.902-26.564-18.488-48.398-10.729C37.496,28.15,23.42,35.419,13.296,44.879
	C1.269,56.128-0.635,65.905,0.144,70.001c2.798,14.536,22.844,23.997,30.862,31.006c-0.404,0.231-0.779,0.433-1.096,0.606
	c-4.009,1.989-19.295,9.979-23.103,18.43c-4.326,9.576,0.692,16.44,4.009,17.363c10.297,2.855,20.882-2.278,26.564-10.758
	c5.682-8.48,4.99-19.498,2.365-24.545c-0.029-0.059-0.058-0.115-0.115-0.174c1.038-0.605,2.105-1.24,3.144-1.846
	c2.048-1.211,4.067-2.336,5.797-3.26c-0.98,2.684-1.702,5.885-2.047,10.499c-0.433,5.423,1.788,12.46,4.701,15.229
	c1.298,1.211,2.827,1.24,3.807,1.24c3.403,0,4.932-2.827,6.634-6.173c2.077-4.096,3.952-8.854,3.952-8.854
	s-2.336,12.863,4.009,12.863c2.308,0,4.644-2.999,5.682-4.527c0,0.028,0,0.028,0,0.028s0.058-0.087,0.173-0.288
	c0.23-0.375,0.375-0.605,0.375-0.605s0-0.029,0-0.059c0.923-1.615,3-5.277,6.085-11.363c3.98-7.846,7.816-17.652,7.816-17.652
	s0.347,2.395,1.529,6.375c0.691,2.336,2.135,4.902,3.288,7.383c-0.923,1.299-1.5,2.02-1.5,2.02s0,0,0.028,0.029
	c-0.75,0.98-1.557,2.047-2.451,3.086c-3.144,3.749-6.894,8.047-7.412,9.287c-0.605,1.471-0.462,2.538,0.691,3.403
	c0.837,0.635,2.337,0.722,3.865,0.635c2.826-0.202,4.816-0.895,5.797-1.327c1.529-0.548,3.317-1.385,4.99-2.625
	c3.086-2.277,4.961-5.537,4.788-9.835c-0.087-2.364-0.865-4.729-1.817-6.951c0.289-0.403,0.549-0.808,0.837-1.211
	c4.874-7.124,8.652-14.94,8.652-14.94s0.347,2.394,1.528,6.374c0.578,2.019,1.76,4.211,2.799,6.345
	c-4.586,3.721-7.413,8.048-8.422,10.874c-1.818,5.249-0.404,7.614,2.277,8.163c1.212,0.26,2.942-0.318,4.211-0.865
	c1.615-0.52,3.52-1.414,5.336-2.74c3.087-2.279,6.058-5.451,5.885-9.749c-0.087-1.962-0.605-3.894-1.327-5.769
	c3.894-1.615,8.913-2.51,15.315-1.76c13.729,1.615,16.44,10.182,15.922,13.787c-0.52,3.605-3.404,5.566-4.355,6.172
	c-0.952,0.605-1.27,0.809-1.184,1.24c0.116,0.635,0.578,0.605,1.385,0.49c1.125-0.201,7.211-2.912,7.471-9.547
	C158.317,97.027,150.241,87.768,135.965,87.854z M30.054,123.563c-4.557,4.961-10.903,6.835-13.643,5.248
	c-2.942-1.701-1.789-9.027,3.807-14.276c3.403-3.202,7.788-6.173,10.701-7.989c0.663-0.404,1.644-0.98,2.827-1.702
	c0.202-0.115,0.317-0.173,0.317-0.173l0,0c0.231-0.145,0.461-0.289,0.692-0.433C36.803,111.736,34.842,118.342,30.054,123.563z
	 M63.223,101.007c-1.586,3.865-4.903,13.758-6.922,13.21c-1.73-0.461-2.798-7.961-0.346-15.373c1.24-3.721,3.865-8.162,5.394-9.893
	c2.48-2.77,5.221-3.692,5.884-2.567C68.069,87.854,64.204,98.584,63.223,101.007z M90.595,114.102
	c-0.663,0.346-1.298,0.576-1.587,0.404c-0.201-0.116,0.289-0.578,0.289-0.578s3.432-3.691,4.787-5.364
	c0.779-0.98,1.703-2.134,2.684-3.433c0,0.115,0,0.26,0,0.375C96.768,109.92,92.498,112.891,90.595,114.102z M111.707,109.285
	c-0.49-0.347-0.403-1.5,1.24-5.105c0.635-1.414,2.135-3.778,4.701-6.057c0.289,0.922,0.491,1.816,0.463,2.653
	C118.082,106.343,114.102,108.42,111.707,109.285z"/>
</svg>
